<svg width="30" height="30" viewBox="0 0 30 30" fill="none" xmlns="http://www.w3.org/2000/svg">
<rect x="0.75" y="0.75" width="28.5" height="28.5" rx="14.25" fill="#141718"/>
<rect x="0.75" y="0.75" width="28.5" height="28.5" rx="14.25" stroke="white" stroke-width="1.5"/>
<path d="M11.2513 10.7226C11.0981 10.9524 11.1602 11.2628 11.39 11.416C11.6197 11.5692 11.9302 11.5071 12.0833 11.2774L11.2513 10.7226ZM12.6048 9.59373L13.0209 9.87108V9.87108L12.6048 9.59373ZM17.3965 9.59373L17.8125 9.31638L17.3965 9.59373ZM17.918 11.2774C18.0711 11.5071 18.3816 11.5692 18.6113 11.416C18.8411 11.2628 18.9032 10.9524 18.75 10.7226L17.918 11.2774ZM16.5007 16C16.5007 16.8284 15.8291 17.5 15.0007 17.5V18.5C16.3814 18.5 17.5007 17.3807 17.5007 16H16.5007ZM15.0007 17.5C14.1722 17.5 13.5007 16.8284 13.5007 16H12.5007C12.5007 17.3807 13.6199 18.5 15.0007 18.5V17.5ZM13.5007 16C13.5007 15.1716 14.1722 14.5 15.0007 14.5V13.5C13.6199 13.5 12.5007 14.6193 12.5007 16H13.5007ZM15.0007 14.5C15.8291 14.5 16.5007 15.1716 16.5007 16H17.5007C17.5007 14.6193 16.3814 13.5 15.0007 13.5V14.5ZM12.0833 11.2774L13.0209 9.87108L12.1888 9.31638L11.2513 10.7226L12.0833 11.2774ZM13.7142 9.5H16.2871V8.5H13.7142V9.5ZM16.9804 9.87108L17.918 11.2774L18.75 10.7226L17.8125 9.31638L16.9804 9.87108ZM16.2871 9.5C16.5657 9.5 16.8259 9.63925 16.9804 9.87108L17.8125 9.31638C17.4725 8.80635 16.9001 8.5 16.2871 8.5V9.5ZM13.0209 9.87108C13.1754 9.63925 13.4356 9.5 13.7142 9.5V8.5C13.1012 8.5 12.5288 8.80635 12.1888 9.31638L13.0209 9.87108ZM11.0007 11.5H19.0007V10.5H11.0007V11.5ZM21.1673 13.6667V18.3333H22.1673V13.6667H21.1673ZM19.0007 20.5H11.0007V21.5H19.0007V20.5ZM8.83398 18.3333V13.6667H7.83398V18.3333H8.83398ZM11.0007 20.5C9.80403 20.5 8.83398 19.53 8.83398 18.3333H7.83398C7.83398 20.0822 9.25175 21.5 11.0007 21.5V20.5ZM21.1673 18.3333C21.1673 19.53 20.1973 20.5 19.0007 20.5V21.5C20.7496 21.5 22.1673 20.0822 22.1673 18.3333H21.1673ZM19.0007 11.5C20.1973 11.5 21.1673 12.47 21.1673 13.6667H22.1673C22.1673 11.9178 20.7496 10.5 19.0007 10.5V11.5ZM11.0007 10.5C9.25175 10.5 7.83398 11.9178 7.83398 13.6667H8.83398C8.83398 12.47 9.80403 11.5 11.0007 11.5V10.5Z" fill="#FEFEFE"/>
</svg>
