<svg width="17" height="16" viewBox="0 0 17 16" fill="none" xmlns="http://www.w3.org/2000/svg">
<path fill-rule="evenodd" clip-rule="evenodd" d="M12.9418 4.44194C13.1859 4.19786 13.1859 3.80214 12.9418 3.55806C12.6977 3.31398 12.302 3.31398 12.0579 3.55806L8.49984 7.11612L4.94178 3.55806C4.6977 3.31398 4.30198 3.31398 4.0579 3.55806C3.81382 3.80214 3.81382 4.19786 4.0579 4.44194L7.61596 8L4.0579 11.5581C3.81382 11.8021 3.81382 12.1979 4.0579 12.4419C4.30198 12.686 4.6977 12.686 4.94178 12.4419L8.49984 8.88388L12.0579 12.4419C12.302 12.686 12.6977 12.686 12.9418 12.4419C13.1859 12.1979 13.1859 11.8021 12.9418 11.5581L9.38372 8L12.9418 4.44194Z" fill="#343839"/>
</svg>
