<svg width="51" height="26" viewBox="0 0 51 26" fill="none" xmlns="http://www.w3.org/2000/svg">
<path d="M2 18.25C1.58579 18.25 1.25 18.5858 1.25 19C1.25 19.4142 1.58579 19.75 2 19.75V18.25ZM14 19.75C14.4142 19.75 14.75 19.4142 14.75 19C14.75 18.5858 14.4142 18.25 14 18.25V19.75ZM4.87975 16.992L4.77368 16.2496L4.87975 16.992ZM4.00795 16.1202L3.26549 16.0142H3.26549L4.00795 16.1202ZM4.77078 12.96L4.24045 12.4296H4.24045L4.77078 12.96ZM4.33488 13.8318L5.07734 13.9378L4.33488 13.8318ZM8.04003 16.2292L8.57036 16.7596L8.04003 16.2292ZM7.16823 16.6651L7.27429 17.4076L7.16823 16.6651ZM13.5486 8.54114L13.0183 9.07147L13.0183 9.07147L13.5486 8.54114ZM13.5486 10.7206L13.0183 10.1903L13.5486 10.7206ZM12.4589 7.45139L12.9892 6.92106V6.92106L12.4589 7.45139ZM10.2794 7.45139L10.8097 7.98172L10.2794 7.45139ZM9.93961 8.54114C9.93961 8.12693 9.60382 7.79114 9.18961 7.79114C8.77539 7.79114 8.43961 8.12693 8.43961 8.54114L9.93961 8.54114ZM12.4589 12.5604C12.8731 12.5604 13.2089 12.2246 13.2089 11.8104C13.2089 11.3962 12.8731 11.0604 12.4589 11.0604V12.5604ZM2 19.75H14V18.25H2V19.75ZM11.9285 7.98172L13.0183 9.07147L14.0789 8.01081L12.9892 6.92106L11.9285 7.98172ZM13.0183 10.1903L7.5097 15.6989L8.57036 16.7596L14.0789 11.251L13.0183 10.1903ZM5.30111 13.4903L10.8097 7.98172L9.74903 6.92106L4.24045 12.4296L5.30111 13.4903ZM7.06216 15.9227L4.77368 16.2496L4.98582 17.7345L7.27429 17.4076L7.06216 15.9227ZM4.75041 16.2263L5.07734 13.9378L3.59241 13.7257L3.26549 16.0142L4.75041 16.2263ZM4.77368 16.2496C4.76978 16.2501 4.76766 16.25 4.76689 16.2499C4.76602 16.2498 4.76534 16.2497 4.7646 16.2494C4.7629 16.2488 4.75968 16.2472 4.75623 16.2438C4.75278 16.2403 4.75116 16.2371 4.75057 16.2354C4.75032 16.2347 4.75016 16.234 4.75008 16.2331C4.75 16.2323 4.74985 16.2302 4.75041 16.2263L3.26549 16.0142C3.12213 17.0177 3.98229 17.8779 4.98582 17.7345L4.77368 16.2496ZM4.24045 12.4296C3.88991 12.7802 3.66252 13.235 3.59241 13.7257L5.07734 13.9378C5.10155 13.7684 5.18006 13.6113 5.30111 13.4903L4.24045 12.4296ZM7.5097 15.6989C7.38865 15.8199 7.23162 15.8985 7.06216 15.9227L7.27429 17.4076C7.76504 17.3375 8.21982 17.1101 8.57036 16.7596L7.5097 15.6989ZM13.0183 9.07147C13.3272 9.38043 13.3272 9.88135 13.0183 10.1903L14.0789 11.251C14.9737 10.3562 14.9737 8.90556 14.0789 8.01081L13.0183 9.07147ZM12.9892 6.92106C12.0944 6.02631 10.6438 6.02631 9.74903 6.92106L10.8097 7.98172C11.1186 7.67276 11.6196 7.67276 11.9285 7.98172L12.9892 6.92106ZM9.18961 8.54114C8.43961 8.54114 8.43961 8.54151 8.43961 8.54189C8.43961 8.54202 8.43961 8.5424 8.43961 8.54266C8.43961 8.54318 8.43961 8.54372 8.43961 8.54428C8.43962 8.5454 8.43962 8.54659 8.43963 8.54784C8.43965 8.55035 8.43969 8.55314 8.43973 8.5562C8.43983 8.56233 8.44 8.56955 8.44026 8.57783C8.4408 8.59438 8.44174 8.6152 8.4434 8.63998C8.4467 8.68954 8.45283 8.75515 8.46417 8.83451C8.48683 8.99311 8.53043 9.20774 8.61431 9.45941C8.78296 9.96534 9.11253 10.6145 9.74903 11.251L10.8097 10.1903C10.3564 9.73706 10.1411 9.29644 10.0373 8.98506C9.98501 8.82807 9.96049 8.70216 9.9491 8.62238C9.94341 8.58255 9.94103 8.55451 9.94007 8.54021C9.9396 8.53307 9.93948 8.52941 9.93948 8.52947C9.93948 8.5295 9.93952 8.53046 9.93955 8.5324C9.93956 8.53337 9.93958 8.53457 9.93959 8.53603C9.93959 8.53676 9.9396 8.53755 9.9396 8.5384C9.9396 8.53883 9.9396 8.53927 9.93961 8.53972C9.93961 8.53995 9.93961 8.54031 9.93961 8.54042C9.93961 8.54078 9.93961 8.54114 9.18961 8.54114ZM9.74903 11.251C10.3855 11.8875 11.0347 12.217 11.5406 12.3857C11.7923 12.4696 12.0069 12.5132 12.1655 12.5358C12.2449 12.5472 12.3105 12.5533 12.36 12.5566C12.3848 12.5583 12.4056 12.5592 12.4222 12.5597C12.4305 12.56 12.4377 12.5602 12.4438 12.5603C12.4469 12.5603 12.4496 12.5603 12.4522 12.5604C12.4534 12.5604 12.4546 12.5604 12.4557 12.5604C12.4563 12.5604 12.4568 12.5604 12.4573 12.5604C12.4576 12.5604 12.458 12.5604 12.4581 12.5604C12.4585 12.5604 12.4589 12.5604 12.4589 11.8104C12.4589 11.0604 12.4592 11.0604 12.4596 11.0604C12.4597 11.0604 12.46 11.0604 12.4603 11.0604C12.4607 11.0604 12.4612 11.0604 12.4616 11.0604C12.4625 11.0604 12.4632 11.0604 12.464 11.0604C12.4654 11.0604 12.4666 11.0604 12.4676 11.0605C12.4695 11.0605 12.4705 11.0605 12.4705 11.0605C12.4706 11.0605 12.4669 11.0604 12.4598 11.0599C12.4455 11.059 12.4175 11.0566 12.3776 11.0509C12.2978 11.0395 12.1719 11.015 12.0149 10.9627C11.7036 10.8589 11.2629 10.6436 10.8097 10.1903L9.74903 11.251Z" fill="#6C7275"/>
<path d="M21.1477 19V7.36364H28.7159V9.13068H23.2557V12.2898H28.3239V14.0568H23.2557V17.233H28.7614V19H21.1477ZM34.0142 19.1534C33.3286 19.1534 32.715 18.9773 32.1733 18.625C31.6316 18.2727 31.2036 17.7614 30.8892 17.0909C30.5748 16.4205 30.4176 15.6061 30.4176 14.6477C30.4176 13.678 30.5767 12.8598 30.8949 12.1932C31.2169 11.5227 31.6506 11.017 32.196 10.6761C32.7415 10.3314 33.3494 10.1591 34.0199 10.1591C34.5313 10.1591 34.9517 10.2462 35.2812 10.4205C35.6108 10.5909 35.8722 10.7973 36.0653 11.0398C36.2585 11.2784 36.4081 11.5038 36.5142 11.7159H36.5994V7.36364H38.6619V19H36.6392V17.625H36.5142C36.4081 17.8371 36.2547 18.0625 36.054 18.3011C35.8532 18.536 35.5881 18.7367 35.2585 18.9034C34.929 19.0701 34.5142 19.1534 34.0142 19.1534ZM34.5881 17.4659C35.0237 17.4659 35.3949 17.3485 35.7017 17.1136C36.0085 16.875 36.2415 16.5436 36.4006 16.1193C36.5597 15.6951 36.6392 15.2008 36.6392 14.6364C36.6392 14.072 36.5597 13.5814 36.4006 13.1648C36.2453 12.7481 36.0142 12.4242 35.7074 12.1932C35.4044 11.9621 35.0313 11.8466 34.5881 11.8466C34.1297 11.8466 33.7472 11.9659 33.4403 12.2045C33.1335 12.4432 32.9025 12.7727 32.7472 13.1932C32.5919 13.6136 32.5142 14.0947 32.5142 14.6364C32.5142 15.1818 32.5919 15.6686 32.7472 16.0966C32.9063 16.5208 33.1392 16.8561 33.446 17.1023C33.7566 17.3447 34.1373 17.4659 34.5881 17.4659ZM40.8537 19V10.2727H42.9105V19H40.8537ZM41.8878 9.03409C41.562 9.03409 41.2817 8.92614 41.0469 8.71023C40.812 8.49053 40.6946 8.22727 40.6946 7.92045C40.6946 7.60985 40.812 7.34659 41.0469 7.13068C41.2817 6.91098 41.562 6.80114 41.8878 6.80114C42.2173 6.80114 42.4976 6.91098 42.7287 7.13068C42.9635 7.34659 43.081 7.60985 43.081 7.92045C43.081 8.22727 42.9635 8.49053 42.7287 8.71023C42.4976 8.92614 42.2173 9.03409 41.8878 9.03409ZM49.3835 10.2727V11.8636H44.3665V10.2727H49.3835ZM45.6051 8.18182H47.6619V16.375C47.6619 16.6515 47.7036 16.8636 47.7869 17.0114C47.8741 17.1553 47.9877 17.2538 48.1278 17.3068C48.268 17.3598 48.4233 17.3864 48.5938 17.3864C48.7225 17.3864 48.84 17.3769 48.946 17.358C49.0559 17.339 49.1392 17.322 49.196 17.3068L49.5426 18.9148C49.4328 18.9527 49.2756 18.9943 49.071 19.0398C48.8703 19.0852 48.6241 19.1117 48.3324 19.1193C47.8172 19.1345 47.3532 19.0568 46.9403 18.8864C46.5275 18.7121 46.1998 18.4432 45.9574 18.0795C45.7188 17.7159 45.6013 17.2614 45.6051 16.7159V8.18182Z" fill="#6C7275"/>
</svg>
