<svg width="48" height="48" viewBox="0 0 48 48" fill="none" xmlns="http://www.w3.org/2000/svg">
<path d="M7.57456 43.8578H32.12C34.3768 43.8578 36.2109 42.0237 36.2109 39.7669C36.2109 37.701 34.6768 35.9965 32.6859 35.7169L30.2246 23.3966C29.9109 21.8148 28.4314 20.6694 26.7064 20.6694H26.6655V16.8512C26.6655 15.8148 27.2928 14.8603 28.2951 14.4171L32.6382 12.2966L34.9359 21.5964C35.1132 22.326 35.5837 22.8919 36.17 23.1987C35.9723 23.6487 35.9382 24.1396 36.0814 24.6101L36.5109 25.9805C36.5518 26.1101 36.6064 26.2328 36.6746 26.3487L36.3473 26.4032C36.0473 26.451 35.795 26.6351 35.6518 26.901C35.5086 27.1668 35.495 27.4805 35.6177 27.7601C36.1086 28.8919 36.2313 30.1191 35.9655 31.3191C35.8018 32.0555 35.3791 32.7782 34.7382 33.4055L34.0632 34.0668C33.8927 34.2305 33.8245 34.4691 33.8723 34.7009C33.92 34.9327 34.0904 35.1168 34.3154 35.1986C35.3791 35.5736 36.4427 35.7577 37.4927 35.7577C37.7109 35.7577 37.9359 35.7509 38.154 35.7304C39.995 35.5941 41.7677 35.11 43.4109 34.3122C43.4245 34.3054 43.445 34.2986 43.4586 34.285L43.7041 34.1418C43.8473 34.06 43.9564 33.9236 44.0041 33.7668C44.8632 31.1691 44.2905 28.2647 42.4223 25.7826C42.2723 25.5781 42.0132 25.4826 41.7677 25.5167L41.2427 25.6054C41.2768 25.394 41.2905 25.169 41.2496 24.9508L41.0177 23.5326C40.9427 23.0553 40.6905 22.6531 40.3564 22.3599C40.7246 21.8895 40.9223 21.2826 40.8746 20.6213L39.8928 7.77559C39.8109 6.69829 39.2928 5.71647 38.4746 5.07559C37.7314 4.49605 36.8246 4.25741 35.9245 4.40743L34.5473 4.63925C33.6814 4.78243 32.9314 5.28018 32.4132 6.02335L22.6155 10.3392C20.9383 11.1097 19.8542 12.7802 19.8542 14.6074V20.6894H18.9679C17.5769 20.6894 16.4451 21.7531 16.4451 23.0554V23.4167H12.927C11.4883 23.4167 10.3088 24.5895 10.3088 26.0349V27.5076H8.96561C7.82696 27.5076 6.89969 28.4349 6.89969 29.5736V35.7507C4.97014 36.078 3.4906 37.7553 3.4906 39.7803C3.4906 42.0371 5.32468 43.8712 7.58151 43.8712L7.57456 43.8578ZM42.7839 33.0918C41.3248 33.8009 39.6884 34.2441 38.0519 34.3668C37.3292 34.4214 36.5928 34.3668 35.8497 34.21C36.586 33.4328 37.0837 32.5396 37.2951 31.6123C37.5883 30.2896 37.4997 28.9396 37.0497 27.6714L39.5997 27.2555L41.5769 26.9282C42.927 28.8851 43.3633 31.101 42.7905 33.0919L42.7839 33.0918ZM38.6316 26.035L38.618 26.0009C38.2771 26.11 37.9157 25.9191 37.8066 25.5781L37.3771 24.2077C37.3225 24.0441 37.343 23.8668 37.418 23.7168C37.493 23.5668 37.6293 23.4509 37.7998 23.3963V23.3827L38.9248 23.1918V23.2191C39.0952 23.1918 39.2657 23.2327 39.4089 23.335C39.5521 23.4372 39.6407 23.5872 39.668 23.7577L39.8998 25.1759C39.9271 25.3463 39.8861 25.5168 39.7839 25.6532C39.6816 25.7964 39.5316 25.885 39.3611 25.9123L38.618 26.035L38.6316 26.035ZM34.7725 5.96922L36.1497 5.7374C36.252 5.72377 36.3475 5.71013 36.4497 5.71013C36.8657 5.71013 37.2815 5.85331 37.6361 6.13286C38.1543 6.53513 38.4816 7.16922 38.5361 7.8647L39.5179 20.7104C39.5589 21.2626 39.2248 21.7535 38.7611 21.8354L37.3157 22.074C36.8452 22.1558 36.3884 21.8081 36.2588 21.2626L33.177 8.76473C33.0066 8.08972 33.1225 7.38063 33.4907 6.82837C33.8043 6.35792 34.2611 6.05112 34.7793 5.96245L34.7725 5.96922ZM21.2112 14.5944C21.2112 13.2989 21.9816 12.1126 23.168 11.5671L31.7522 7.78301C31.7113 8.21937 31.7385 8.66254 31.8476 9.09891L32.3044 10.9466L27.7226 13.183C26.2567 13.8376 25.309 15.2762 25.309 16.8512V20.6694H21.2181V14.5873L21.2112 14.5944ZM18.9612 22.0396H26.7067C27.784 22.0396 28.6976 22.7282 28.8885 23.6692L31.2885 35.6762H17.8022V23.0421C17.8022 22.4899 18.3203 22.0396 18.9612 22.0396ZM8.95888 28.8578H13.7113C14.0863 28.8578 14.3931 28.551 14.3931 28.176C14.3931 27.801 14.0863 27.4942 13.7113 27.4942H11.6659V26.0214C11.6659 25.3328 12.2249 24.7669 12.9204 24.7669H16.4386V35.676H8.25677V29.5599C8.25677 29.1713 8.57024 28.8578 8.95888 28.8578ZM7.57478 37.0396H32.1202C33.627 37.0396 34.8475 38.2601 34.8475 39.7669C34.8475 41.2737 33.627 42.4942 32.1202 42.4942H7.57478C6.06797 42.4942 4.84751 41.2737 4.84751 39.7669C4.84751 38.2601 6.06797 37.0396 7.57478 37.0396Z" fill="black"/>
<path d="M10.9834 31.5851C11.3601 31.5851 11.6652 31.9618 11.6652 32.2669V33.6305C11.6652 34.0072 11.3601 34.3124 10.9834 34.3124C10.6067 34.3124 10.3016 33.9357 10.3016 33.6305V32.2669C10.3016 31.8902 10.6067 31.5851 10.9834 31.5851Z" fill="black"/>
<path d="M13.7107 31.5851C14.0874 31.5851 14.3925 31.9618 14.3925 32.2669V33.6305C14.3925 34.0072 14.0874 34.3124 13.7107 34.3124C13.334 34.3124 13.0289 33.9357 13.0289 33.6305V32.2669C13.0289 31.8902 13.334 31.5851 13.7107 31.5851Z" fill="black"/>
<path d="M20.5291 30.9035H28.0293C28.2407 30.9035 28.4384 30.8081 28.568 30.6444C28.6975 30.4808 28.7453 30.2626 28.6907 30.058L27.4975 25.2851C27.3202 24.5828 26.6929 24.0851 25.9634 24.0851H20.5224C19.7724 24.0851 19.1656 24.6919 19.1656 25.4419V29.5328C19.1656 30.2828 19.7792 30.8965 20.5292 30.8965L20.5291 30.9035ZM25.9632 25.449C26.0654 25.449 26.1472 25.5171 26.1745 25.6126L27.1563 29.5399H20.5288V25.449H25.9699H25.9632Z" fill="black"/>
<path d="M9.62022 41.8126C10.7452 41.8126 11.6657 40.8921 11.6657 39.7671C11.6657 38.6421 10.7452 37.7217 9.62022 37.7217C8.49523 37.7217 7.57477 38.6421 7.57477 39.7671C7.57477 40.8921 8.49523 41.8126 9.62022 41.8126ZM9.62022 39.0853C9.99522 39.0853 10.302 39.3921 10.302 39.7671C10.302 40.1421 9.99522 40.449 9.62022 40.449C9.24522 40.449 8.9384 40.1421 8.9384 39.7671C8.9384 39.3921 9.24522 39.0853 9.62022 39.0853Z" fill="black"/>
<path d="M30.0744 41.8126C31.1993 41.8126 32.1198 40.8921 32.1198 39.7671C32.1198 38.6421 31.1993 37.7217 30.0744 37.7217C28.9494 37.7217 28.0289 38.6421 28.0289 39.7671C28.0289 40.8921 28.9494 41.8126 30.0744 41.8126ZM30.0744 39.0853C30.4494 39.0853 30.7562 39.3921 30.7562 39.7671C30.7562 40.1421 30.4494 40.449 30.0744 40.449C29.6994 40.449 29.3925 40.1421 29.3925 39.7671C29.3925 39.3921 29.6994 39.0853 30.0744 39.0853Z" fill="black"/>
<path d="M23.2566 41.8126C24.3816 41.8126 25.3021 40.8921 25.3021 39.7671C25.3021 38.6421 24.3816 37.7217 23.2566 37.7217C22.1316 37.7217 21.2112 38.6421 21.2112 39.7671C21.2112 40.8921 22.1316 41.8126 23.2566 41.8126ZM23.2566 39.0853C23.6316 39.0853 23.9384 39.3921 23.9384 39.7671C23.9384 40.1421 23.6316 40.449 23.2566 40.449C22.8816 40.449 22.5748 40.1421 22.5748 39.7671C22.5748 39.3921 22.8816 39.0853 23.2566 39.0853Z" fill="black"/>
<path d="M16.438 41.8126C17.563 41.8126 18.4834 40.8921 18.4834 39.7671C18.4834 38.6421 17.563 37.7217 16.438 37.7217C15.313 37.7217 14.3925 38.6421 14.3925 39.7671C14.3925 40.8921 15.313 41.8126 16.438 41.8126ZM16.438 39.0853C16.813 39.0853 17.1198 39.3921 17.1198 39.7671C17.1198 40.1421 16.813 40.449 16.438 40.449C16.063 40.449 15.7562 40.1421 15.7562 39.7671C15.7562 39.3921 16.063 39.0853 16.438 39.0853Z" fill="black"/>
</svg>
