<svg width="48" height="48" viewBox="0 0 48 48" fill="none" xmlns="http://www.w3.org/2000/svg">
<g clip-path="url(#clip0_159_5909)">
<mask id="path-1-outside-1_159_5909" maskUnits="userSpaceOnUse" x="-1" y="13.4" width="50" height="21" fill="black">
<rect fill="white" x="-1" y="13.4" width="50" height="21"/>
<path d="M44.0582 28.0314C43.0263 28.0314 42.1869 28.8709 42.1869 29.9028C42.1869 30.9347 43.0263 31.7742 44.0582 31.7742C45.0901 31.7742 45.9296 30.9347 45.9296 29.9028C45.9296 28.8709 45.0901 28.0314 44.0582 28.0314ZM44.0582 31.0123C43.4465 31.0123 42.9488 30.5146 42.9488 29.9028C42.9488 29.291 43.4465 28.7933 44.0582 28.7933C44.67 28.7933 45.1677 29.291 45.1677 29.9028C45.1677 30.5146 44.67 31.0123 44.0582 31.0123ZM16.6296 28.0314C15.5977 28.0314 14.7583 28.8709 14.7583 29.9028C14.7583 30.9347 15.5977 31.7742 16.6296 31.7742C17.6615 31.7742 18.501 30.9347 18.501 29.9028C18.501 28.8709 17.6615 28.0314 16.6296 28.0314ZM16.6296 31.0123C16.0179 31.0123 15.5202 30.5146 15.5202 29.9028C15.5202 29.291 16.0179 28.7933 16.6296 28.7933C17.2414 28.7933 17.7391 29.291 17.7391 29.9028C17.7391 30.5146 17.2414 31.0123 16.6296 31.0123ZM9.508 28.0314C8.4761 28.0314 7.63657 28.8709 7.63657 29.9028C7.63657 30.9347 8.4761 31.7742 9.508 31.7742C10.5399 31.7742 11.3794 30.9347 11.3794 29.9028C11.3794 28.8709 10.5399 28.0314 9.508 28.0314ZM9.508 31.0123C8.89619 31.0123 8.39848 30.5146 8.39848 29.9028C8.39848 29.291 8.89619 28.7933 9.508 28.7933C10.1198 28.7933 10.6175 29.291 10.6175 29.9028C10.6175 30.5146 10.1198 31.0123 9.508 31.0123ZM47.1583 24.9327C47.1583 24.7576 47.0389 24.605 46.8689 24.5629L44.4391 23.9616V23.5868C44.4391 23.4002 44.3039 23.2409 44.1196 23.2108L43.3414 23.0837V22.0081C43.3414 21.7977 43.1709 21.6271 42.9605 21.6271C42.7501 21.6271 42.5795 21.7977 42.5795 22.0081V22.9593L34.7736 21.6842V19.0544C34.7736 18.3898 34.2329 17.8489 33.5681 17.8489C32.9033 17.8489 32.3626 18.3897 32.3626 19.0544V21.6272H26.6667V18.6108H28.1844V19.4423C28.1844 20.0796 28.7028 20.598 29.34 20.598C29.9771 20.598 30.4956 20.0796 30.4956 19.4423V18.2299C30.4956 17.5926 29.9772 17.0742 29.34 17.0742C28.8364 17.0742 28.4082 17.3986 28.2502 17.8489H26.6667V14.7809C26.6667 14.5705 26.4961 14.4 26.2857 14.4H15.4138C15.2034 14.4 15.0329 14.5705 15.0329 14.7809V16.127C15.0329 16.2523 15.0946 16.3697 15.1978 16.4408L16.2488 17.1642V19.8749L14.3756 20.0767V17.3982C14.3756 16.0416 13.2719 14.9379 11.9152 14.9379H10.6667C10.4563 14.9379 10.2857 15.1084 10.2857 15.3188V16.8461C10.2857 17.0564 10.4563 17.227 10.6667 17.227H11.9151C12.0096 17.227 12.0864 17.3039 12.0864 17.3982V20.3234L11.0476 20.4354V19.6211C11.0476 18.9564 10.5069 18.4156 9.8421 18.4156C9.17733 18.4156 8.63657 18.9563 8.63657 19.6211V20.6952L7.19267 20.8508C6.45191 20.9306 5.89324 21.5527 5.89324 22.2978V25.9612H3.826C3.03429 25.9612 2.39029 26.6053 2.39029 27.3969V28.2357L0.135048 30.1422C0.0494286 30.2144 0 30.3208 0 30.433V33.4636C0 33.6403 0.121619 33.794 0.293714 33.8344C0.322857 33.8413 0.352095 33.8446 0.381048 33.8446C0.523048 33.8446 0.656476 33.7649 0.722 33.6335L1.78381 31.5019L2.60352 31.0874V32.3774C2.60352 32.5068 2.66924 32.6274 2.778 32.6976L4.46276 33.784C4.52543 33.8243 4.59724 33.8447 4.66924 33.8447C4.7319 33.8447 4.79457 33.8293 4.85152 33.7982C4.974 33.7315 5.05019 33.6032 5.05019 33.4638V31.6638L6.58219 32.5412C7.3041 33.341 8.34829 33.8446 9.508 33.8446C11.0773 33.8446 12.435 32.9225 13.0689 31.5919C13.7026 32.9225 15.0603 33.8446 16.6296 33.8446C18.6746 33.8446 20.3604 32.2792 20.5527 30.2838H24C24.2104 30.2838 24.381 30.1132 24.381 29.9028V26.723H26.2857H31.6275V28.1254H29.8907C28.751 28.1254 27.8239 29.0525 27.8239 30.1922C27.8239 31.2179 28.575 32.071 29.5561 32.2314C29.5021 32.779 29.6414 33.309 29.9939 33.7139C30.0603 33.7901 30.1542 33.8368 30.255 33.8438C30.2637 33.8443 30.2725 33.8446 30.2812 33.8446C30.3729 33.8446 30.4618 33.8116 30.5314 33.751L33.8398 30.8702H40.237C40.6693 32.5776 42.2185 33.8446 44.0582 33.8446C46.2317 33.8446 48 32.0763 48 29.9028C48 28.9864 47.6848 28.1428 47.1583 27.4727V24.9327ZM28.9463 18.2299C28.9463 18.0127 29.1229 17.8362 29.34 17.8362C29.557 17.8362 29.7337 18.0127 29.7337 18.2299V19.4423C29.7337 19.6595 29.5571 19.8361 29.34 19.8361C29.1229 19.8361 28.9463 19.6595 28.9463 19.4423V18.2299ZM46.3964 25.2309V26.7319C45.838 26.319 45.1672 26.0501 44.4391 25.9799V24.7465L46.3964 25.2309ZM40.5866 28.038L34.7737 26.0689V24.1132L43.6773 25.5676V25.9799C42.3398 26.1087 41.1957 26.9085 40.5866 28.038ZM26.6667 24.046H34.0118V25.9611H26.6667V24.046ZM33.1246 19.0544C33.1246 18.8099 33.3235 18.6108 33.5682 18.6108C33.8129 18.6108 34.0118 18.8098 34.0118 19.0544V21.6272H33.1247L33.1246 19.0544ZM34.3618 22.389L43.6773 23.9106V24.7955L34.4542 23.289C34.4339 23.2857 34.4133 23.2841 34.3928 23.2841H26.6667V22.3891L34.3618 22.389ZM15.7948 15.9268V15.1619H25.9048V16.5829H16.7481L15.7948 15.9268ZM18.9244 17.3448H23.991V23.9338H20.9646L18.9244 22.5813V17.3448ZM13.0689 28.2139C12.4351 26.8832 11.0774 25.9611 9.508 25.9611C8.38648 25.9611 7.37362 26.4327 6.65514 27.187V25.7829L8.53114 24.9773C8.67114 24.9172 8.76181 24.7796 8.76181 24.6273V21.448L10.6869 21.2405L12.7463 24.5174C12.816 24.6283 12.9378 24.6957 13.0689 24.6957H16.2487V25.9799C14.8429 26.1154 13.6507 26.9922 13.0689 28.2139ZM16.2487 23.9338H13.2793L11.5297 21.1498L16.2487 20.6413V23.9338ZM11.9151 16.4651H11.0476V15.6998H11.9151C12.8516 15.6998 13.6136 16.4617 13.6136 17.3982V20.1588L12.8483 20.2413V17.3982C12.8483 16.8838 12.4297 16.4651 11.9151 16.4651ZM9.39857 19.6211C9.39857 19.3765 9.59752 19.1775 9.84219 19.1775C10.0869 19.1775 10.2857 19.3764 10.2857 19.6211V20.5175L9.39857 20.6131V19.6211ZM7.27438 21.6082L8 21.5301V24.3763L6.65524 24.9539V22.2977C6.65524 21.9426 6.92133 21.6462 7.27438 21.6082ZM3.15219 27.3968C3.15219 27.0253 3.45448 26.723 3.826 26.723H5.89333V28.0314H3.15219V27.3968ZM1.32733 30.8788C1.2541 30.9159 1.19476 30.9755 1.15819 31.0489L0.761905 31.8444V30.6098L2.91067 28.7933H3.81438V29.6213L1.32733 30.8788ZM3.36543 32.1697V30.7022L3.90457 30.4295C3.98448 30.6802 4.11476 30.9122 4.28829 31.1097V32.7648L3.36543 32.1697ZM5.1479 30.8417C4.79533 30.6397 4.57629 30.2619 4.57629 29.8556V28.7933H5.72629C5.62276 29.1455 5.56619 29.5176 5.56619 29.9028C5.56619 30.3606 5.64552 30.8002 5.78962 31.2092L5.1479 30.8417ZM9.508 33.0827C7.75457 33.0827 6.3281 31.6562 6.3281 29.9028C6.3281 28.1495 7.75457 26.723 9.508 26.723C11.2614 26.723 12.6879 28.1495 12.6879 29.9028C12.6879 31.6562 11.2614 33.0827 9.508 33.0827ZM16.6296 33.0827C14.8763 33.0827 13.4498 31.6562 13.4498 29.9028C13.4498 28.1495 14.8763 26.723 16.6296 26.723C18.383 26.723 19.8095 28.1495 19.8095 29.9028C19.8095 31.6562 18.383 33.0827 16.6296 33.0827ZM20.5527 29.5219C20.5184 29.1665 20.4365 28.825 20.3138 28.5034H23.619V29.5219H20.5527ZM23.619 27.7415H19.9236C19.6639 27.347 19.3356 27.0019 18.9554 26.723H23.619V27.7415ZM17.0106 25.9611V17.3448H18.1625V22.7858C18.1625 22.9135 18.2265 23.0327 18.333 23.1033L20.6392 24.6322C20.7016 24.6736 20.7749 24.6956 20.8497 24.6956H24.3719C24.5823 24.6956 24.7529 24.525 24.7529 24.3146V17.3448H25.9048V25.9611H17.0106ZM32.3894 26.723H34.3299L38.4697 28.1254H32.3893L32.3894 26.723ZM30.3725 32.8791C30.159 32.2918 30.4264 31.4913 31.075 30.9265C31.5087 30.5489 32.0232 30.3546 32.4818 30.3546C32.709 30.3546 32.9226 30.4023 33.1057 30.4992L30.3725 32.8791ZM33.8571 30.1083C33.047 29.3517 31.618 29.4436 30.5747 30.352C30.1963 30.6815 29.9172 31.0761 29.7456 31.4884C29.0942 31.416 28.5859 30.8626 28.5859 30.1922C28.5859 29.4726 29.1712 28.8873 29.8908 28.8873H40.2499C40.1633 29.2115 40.1166 29.5518 40.1166 29.9029C40.1166 29.9719 40.1184 30.0403 40.1219 30.1083H33.8571ZM44.0582 33.0827C42.3049 33.0827 40.8784 31.6562 40.8784 29.9028C40.8784 28.1495 42.3049 26.723 44.0582 26.723C45.8116 26.723 47.2381 28.1495 47.2381 29.9028C47.2381 31.6562 45.8116 33.0827 44.0582 33.0827Z"/>
</mask>
<path d="M44.0582 28.0314C43.0263 28.0314 42.1869 28.8709 42.1869 29.9028C42.1869 30.9347 43.0263 31.7742 44.0582 31.7742C45.0901 31.7742 45.9296 30.9347 45.9296 29.9028C45.9296 28.8709 45.0901 28.0314 44.0582 28.0314ZM44.0582 31.0123C43.4465 31.0123 42.9488 30.5146 42.9488 29.9028C42.9488 29.291 43.4465 28.7933 44.0582 28.7933C44.67 28.7933 45.1677 29.291 45.1677 29.9028C45.1677 30.5146 44.67 31.0123 44.0582 31.0123ZM16.6296 28.0314C15.5977 28.0314 14.7583 28.8709 14.7583 29.9028C14.7583 30.9347 15.5977 31.7742 16.6296 31.7742C17.6615 31.7742 18.501 30.9347 18.501 29.9028C18.501 28.8709 17.6615 28.0314 16.6296 28.0314ZM16.6296 31.0123C16.0179 31.0123 15.5202 30.5146 15.5202 29.9028C15.5202 29.291 16.0179 28.7933 16.6296 28.7933C17.2414 28.7933 17.7391 29.291 17.7391 29.9028C17.7391 30.5146 17.2414 31.0123 16.6296 31.0123ZM9.508 28.0314C8.4761 28.0314 7.63657 28.8709 7.63657 29.9028C7.63657 30.9347 8.4761 31.7742 9.508 31.7742C10.5399 31.7742 11.3794 30.9347 11.3794 29.9028C11.3794 28.8709 10.5399 28.0314 9.508 28.0314ZM9.508 31.0123C8.89619 31.0123 8.39848 30.5146 8.39848 29.9028C8.39848 29.291 8.89619 28.7933 9.508 28.7933C10.1198 28.7933 10.6175 29.291 10.6175 29.9028C10.6175 30.5146 10.1198 31.0123 9.508 31.0123ZM47.1583 24.9327C47.1583 24.7576 47.0389 24.605 46.8689 24.5629L44.4391 23.9616V23.5868C44.4391 23.4002 44.3039 23.2409 44.1196 23.2108L43.3414 23.0837V22.0081C43.3414 21.7977 43.1709 21.6271 42.9605 21.6271C42.7501 21.6271 42.5795 21.7977 42.5795 22.0081V22.9593L34.7736 21.6842V19.0544C34.7736 18.3898 34.2329 17.8489 33.5681 17.8489C32.9033 17.8489 32.3626 18.3897 32.3626 19.0544V21.6272H26.6667V18.6108H28.1844V19.4423C28.1844 20.0796 28.7028 20.598 29.34 20.598C29.9771 20.598 30.4956 20.0796 30.4956 19.4423V18.2299C30.4956 17.5926 29.9772 17.0742 29.34 17.0742C28.8364 17.0742 28.4082 17.3986 28.2502 17.8489H26.6667V14.7809C26.6667 14.5705 26.4961 14.4 26.2857 14.4H15.4138C15.2034 14.4 15.0329 14.5705 15.0329 14.7809V16.127C15.0329 16.2523 15.0946 16.3697 15.1978 16.4408L16.2488 17.1642V19.8749L14.3756 20.0767V17.3982C14.3756 16.0416 13.2719 14.9379 11.9152 14.9379H10.6667C10.4563 14.9379 10.2857 15.1084 10.2857 15.3188V16.8461C10.2857 17.0564 10.4563 17.227 10.6667 17.227H11.9151C12.0096 17.227 12.0864 17.3039 12.0864 17.3982V20.3234L11.0476 20.4354V19.6211C11.0476 18.9564 10.5069 18.4156 9.8421 18.4156C9.17733 18.4156 8.63657 18.9563 8.63657 19.6211V20.6952L7.19267 20.8508C6.45191 20.9306 5.89324 21.5527 5.89324 22.2978V25.9612H3.826C3.03429 25.9612 2.39029 26.6053 2.39029 27.3969V28.2357L0.135048 30.1422C0.0494286 30.2144 0 30.3208 0 30.433V33.4636C0 33.6403 0.121619 33.794 0.293714 33.8344C0.322857 33.8413 0.352095 33.8446 0.381048 33.8446C0.523048 33.8446 0.656476 33.7649 0.722 33.6335L1.78381 31.5019L2.60352 31.0874V32.3774C2.60352 32.5068 2.66924 32.6274 2.778 32.6976L4.46276 33.784C4.52543 33.8243 4.59724 33.8447 4.66924 33.8447C4.7319 33.8447 4.79457 33.8293 4.85152 33.7982C4.974 33.7315 5.05019 33.6032 5.05019 33.4638V31.6638L6.58219 32.5412C7.3041 33.341 8.34829 33.8446 9.508 33.8446C11.0773 33.8446 12.435 32.9225 13.0689 31.5919C13.7026 32.9225 15.0603 33.8446 16.6296 33.8446C18.6746 33.8446 20.3604 32.2792 20.5527 30.2838H24C24.2104 30.2838 24.381 30.1132 24.381 29.9028V26.723H26.2857H31.6275V28.1254H29.8907C28.751 28.1254 27.8239 29.0525 27.8239 30.1922C27.8239 31.2179 28.575 32.071 29.5561 32.2314C29.5021 32.779 29.6414 33.309 29.9939 33.7139C30.0603 33.7901 30.1542 33.8368 30.255 33.8438C30.2637 33.8443 30.2725 33.8446 30.2812 33.8446C30.3729 33.8446 30.4618 33.8116 30.5314 33.751L33.8398 30.8702H40.237C40.6693 32.5776 42.2185 33.8446 44.0582 33.8446C46.2317 33.8446 48 32.0763 48 29.9028C48 28.9864 47.6848 28.1428 47.1583 27.4727V24.9327ZM28.9463 18.2299C28.9463 18.0127 29.1229 17.8362 29.34 17.8362C29.557 17.8362 29.7337 18.0127 29.7337 18.2299V19.4423C29.7337 19.6595 29.5571 19.8361 29.34 19.8361C29.1229 19.8361 28.9463 19.6595 28.9463 19.4423V18.2299ZM46.3964 25.2309V26.7319C45.838 26.319 45.1672 26.0501 44.4391 25.9799V24.7465L46.3964 25.2309ZM40.5866 28.038L34.7737 26.0689V24.1132L43.6773 25.5676V25.9799C42.3398 26.1087 41.1957 26.9085 40.5866 28.038ZM26.6667 24.046H34.0118V25.9611H26.6667V24.046ZM33.1246 19.0544C33.1246 18.8099 33.3235 18.6108 33.5682 18.6108C33.8129 18.6108 34.0118 18.8098 34.0118 19.0544V21.6272H33.1247L33.1246 19.0544ZM34.3618 22.389L43.6773 23.9106V24.7955L34.4542 23.289C34.4339 23.2857 34.4133 23.2841 34.3928 23.2841H26.6667V22.3891L34.3618 22.389ZM15.7948 15.9268V15.1619H25.9048V16.5829H16.7481L15.7948 15.9268ZM18.9244 17.3448H23.991V23.9338H20.9646L18.9244 22.5813V17.3448ZM13.0689 28.2139C12.4351 26.8832 11.0774 25.9611 9.508 25.9611C8.38648 25.9611 7.37362 26.4327 6.65514 27.187V25.7829L8.53114 24.9773C8.67114 24.9172 8.76181 24.7796 8.76181 24.6273V21.448L10.6869 21.2405L12.7463 24.5174C12.816 24.6283 12.9378 24.6957 13.0689 24.6957H16.2487V25.9799C14.8429 26.1154 13.6507 26.9922 13.0689 28.2139ZM16.2487 23.9338H13.2793L11.5297 21.1498L16.2487 20.6413V23.9338ZM11.9151 16.4651H11.0476V15.6998H11.9151C12.8516 15.6998 13.6136 16.4617 13.6136 17.3982V20.1588L12.8483 20.2413V17.3982C12.8483 16.8838 12.4297 16.4651 11.9151 16.4651ZM9.39857 19.6211C9.39857 19.3765 9.59752 19.1775 9.84219 19.1775C10.0869 19.1775 10.2857 19.3764 10.2857 19.6211V20.5175L9.39857 20.6131V19.6211ZM7.27438 21.6082L8 21.5301V24.3763L6.65524 24.9539V22.2977C6.65524 21.9426 6.92133 21.6462 7.27438 21.6082ZM3.15219 27.3968C3.15219 27.0253 3.45448 26.723 3.826 26.723H5.89333V28.0314H3.15219V27.3968ZM1.32733 30.8788C1.2541 30.9159 1.19476 30.9755 1.15819 31.0489L0.761905 31.8444V30.6098L2.91067 28.7933H3.81438V29.6213L1.32733 30.8788ZM3.36543 32.1697V30.7022L3.90457 30.4295C3.98448 30.6802 4.11476 30.9122 4.28829 31.1097V32.7648L3.36543 32.1697ZM5.1479 30.8417C4.79533 30.6397 4.57629 30.2619 4.57629 29.8556V28.7933H5.72629C5.62276 29.1455 5.56619 29.5176 5.56619 29.9028C5.56619 30.3606 5.64552 30.8002 5.78962 31.2092L5.1479 30.8417ZM9.508 33.0827C7.75457 33.0827 6.3281 31.6562 6.3281 29.9028C6.3281 28.1495 7.75457 26.723 9.508 26.723C11.2614 26.723 12.6879 28.1495 12.6879 29.9028C12.6879 31.6562 11.2614 33.0827 9.508 33.0827ZM16.6296 33.0827C14.8763 33.0827 13.4498 31.6562 13.4498 29.9028C13.4498 28.1495 14.8763 26.723 16.6296 26.723C18.383 26.723 19.8095 28.1495 19.8095 29.9028C19.8095 31.6562 18.383 33.0827 16.6296 33.0827ZM20.5527 29.5219C20.5184 29.1665 20.4365 28.825 20.3138 28.5034H23.619V29.5219H20.5527ZM23.619 27.7415H19.9236C19.6639 27.347 19.3356 27.0019 18.9554 26.723H23.619V27.7415ZM17.0106 25.9611V17.3448H18.1625V22.7858C18.1625 22.9135 18.2265 23.0327 18.333 23.1033L20.6392 24.6322C20.7016 24.6736 20.7749 24.6956 20.8497 24.6956H24.3719C24.5823 24.6956 24.7529 24.525 24.7529 24.3146V17.3448H25.9048V25.9611H17.0106ZM32.3894 26.723H34.3299L38.4697 28.1254H32.3893L32.3894 26.723ZM30.3725 32.8791C30.159 32.2918 30.4264 31.4913 31.075 30.9265C31.5087 30.5489 32.0232 30.3546 32.4818 30.3546C32.709 30.3546 32.9226 30.4023 33.1057 30.4992L30.3725 32.8791ZM33.8571 30.1083C33.047 29.3517 31.618 29.4436 30.5747 30.352C30.1963 30.6815 29.9172 31.0761 29.7456 31.4884C29.0942 31.416 28.5859 30.8626 28.5859 30.1922C28.5859 29.4726 29.1712 28.8873 29.8908 28.8873H40.2499C40.1633 29.2115 40.1166 29.5518 40.1166 29.9029C40.1166 29.9719 40.1184 30.0403 40.1219 30.1083H33.8571ZM44.0582 33.0827C42.3049 33.0827 40.8784 31.6562 40.8784 29.9028C40.8784 28.1495 42.3049 26.723 44.0582 26.723C45.8116 26.723 47.2381 28.1495 47.2381 29.9028C47.2381 31.6562 45.8116 33.0827 44.0582 33.0827Z" fill="black"/>
<path d="M44.0582 28.0314C43.0263 28.0314 42.1869 28.8709 42.1869 29.9028C42.1869 30.9347 43.0263 31.7742 44.0582 31.7742C45.0901 31.7742 45.9296 30.9347 45.9296 29.9028C45.9296 28.8709 45.0901 28.0314 44.0582 28.0314ZM44.0582 31.0123C43.4465 31.0123 42.9488 30.5146 42.9488 29.9028C42.9488 29.291 43.4465 28.7933 44.0582 28.7933C44.67 28.7933 45.1677 29.291 45.1677 29.9028C45.1677 30.5146 44.67 31.0123 44.0582 31.0123ZM16.6296 28.0314C15.5977 28.0314 14.7583 28.8709 14.7583 29.9028C14.7583 30.9347 15.5977 31.7742 16.6296 31.7742C17.6615 31.7742 18.501 30.9347 18.501 29.9028C18.501 28.8709 17.6615 28.0314 16.6296 28.0314ZM16.6296 31.0123C16.0179 31.0123 15.5202 30.5146 15.5202 29.9028C15.5202 29.291 16.0179 28.7933 16.6296 28.7933C17.2414 28.7933 17.7391 29.291 17.7391 29.9028C17.7391 30.5146 17.2414 31.0123 16.6296 31.0123ZM9.508 28.0314C8.4761 28.0314 7.63657 28.8709 7.63657 29.9028C7.63657 30.9347 8.4761 31.7742 9.508 31.7742C10.5399 31.7742 11.3794 30.9347 11.3794 29.9028C11.3794 28.8709 10.5399 28.0314 9.508 28.0314ZM9.508 31.0123C8.89619 31.0123 8.39848 30.5146 8.39848 29.9028C8.39848 29.291 8.89619 28.7933 9.508 28.7933C10.1198 28.7933 10.6175 29.291 10.6175 29.9028C10.6175 30.5146 10.1198 31.0123 9.508 31.0123ZM47.1583 24.9327C47.1583 24.7576 47.0389 24.605 46.8689 24.5629L44.4391 23.9616V23.5868C44.4391 23.4002 44.3039 23.2409 44.1196 23.2108L43.3414 23.0837V22.0081C43.3414 21.7977 43.1709 21.6271 42.9605 21.6271C42.7501 21.6271 42.5795 21.7977 42.5795 22.0081V22.9593L34.7736 21.6842V19.0544C34.7736 18.3898 34.2329 17.8489 33.5681 17.8489C32.9033 17.8489 32.3626 18.3897 32.3626 19.0544V21.6272H26.6667V18.6108H28.1844V19.4423C28.1844 20.0796 28.7028 20.598 29.34 20.598C29.9771 20.598 30.4956 20.0796 30.4956 19.4423V18.2299C30.4956 17.5926 29.9772 17.0742 29.34 17.0742C28.8364 17.0742 28.4082 17.3986 28.2502 17.8489H26.6667V14.7809C26.6667 14.5705 26.4961 14.4 26.2857 14.4H15.4138C15.2034 14.4 15.0329 14.5705 15.0329 14.7809V16.127C15.0329 16.2523 15.0946 16.3697 15.1978 16.4408L16.2488 17.1642V19.8749L14.3756 20.0767V17.3982C14.3756 16.0416 13.2719 14.9379 11.9152 14.9379H10.6667C10.4563 14.9379 10.2857 15.1084 10.2857 15.3188V16.8461C10.2857 17.0564 10.4563 17.227 10.6667 17.227H11.9151C12.0096 17.227 12.0864 17.3039 12.0864 17.3982V20.3234L11.0476 20.4354V19.6211C11.0476 18.9564 10.5069 18.4156 9.8421 18.4156C9.17733 18.4156 8.63657 18.9563 8.63657 19.6211V20.6952L7.19267 20.8508C6.45191 20.9306 5.89324 21.5527 5.89324 22.2978V25.9612H3.826C3.03429 25.9612 2.39029 26.6053 2.39029 27.3969V28.2357L0.135048 30.1422C0.0494286 30.2144 0 30.3208 0 30.433V33.4636C0 33.6403 0.121619 33.794 0.293714 33.8344C0.322857 33.8413 0.352095 33.8446 0.381048 33.8446C0.523048 33.8446 0.656476 33.7649 0.722 33.6335L1.78381 31.5019L2.60352 31.0874V32.3774C2.60352 32.5068 2.66924 32.6274 2.778 32.6976L4.46276 33.784C4.52543 33.8243 4.59724 33.8447 4.66924 33.8447C4.7319 33.8447 4.79457 33.8293 4.85152 33.7982C4.974 33.7315 5.05019 33.6032 5.05019 33.4638V31.6638L6.58219 32.5412C7.3041 33.341 8.34829 33.8446 9.508 33.8446C11.0773 33.8446 12.435 32.9225 13.0689 31.5919C13.7026 32.9225 15.0603 33.8446 16.6296 33.8446C18.6746 33.8446 20.3604 32.2792 20.5527 30.2838H24C24.2104 30.2838 24.381 30.1132 24.381 29.9028V26.723H26.2857H31.6275V28.1254H29.8907C28.751 28.1254 27.8239 29.0525 27.8239 30.1922C27.8239 31.2179 28.575 32.071 29.5561 32.2314C29.5021 32.779 29.6414 33.309 29.9939 33.7139C30.0603 33.7901 30.1542 33.8368 30.255 33.8438C30.2637 33.8443 30.2725 33.8446 30.2812 33.8446C30.3729 33.8446 30.4618 33.8116 30.5314 33.751L33.8398 30.8702H40.237C40.6693 32.5776 42.2185 33.8446 44.0582 33.8446C46.2317 33.8446 48 32.0763 48 29.9028C48 28.9864 47.6848 28.1428 47.1583 27.4727V24.9327ZM28.9463 18.2299C28.9463 18.0127 29.1229 17.8362 29.34 17.8362C29.557 17.8362 29.7337 18.0127 29.7337 18.2299V19.4423C29.7337 19.6595 29.5571 19.8361 29.34 19.8361C29.1229 19.8361 28.9463 19.6595 28.9463 19.4423V18.2299ZM46.3964 25.2309V26.7319C45.838 26.319 45.1672 26.0501 44.4391 25.9799V24.7465L46.3964 25.2309ZM40.5866 28.038L34.7737 26.0689V24.1132L43.6773 25.5676V25.9799C42.3398 26.1087 41.1957 26.9085 40.5866 28.038ZM26.6667 24.046H34.0118V25.9611H26.6667V24.046ZM33.1246 19.0544C33.1246 18.8099 33.3235 18.6108 33.5682 18.6108C33.8129 18.6108 34.0118 18.8098 34.0118 19.0544V21.6272H33.1247L33.1246 19.0544ZM34.3618 22.389L43.6773 23.9106V24.7955L34.4542 23.289C34.4339 23.2857 34.4133 23.2841 34.3928 23.2841H26.6667V22.3891L34.3618 22.389ZM15.7948 15.9268V15.1619H25.9048V16.5829H16.7481L15.7948 15.9268ZM18.9244 17.3448H23.991V23.9338H20.9646L18.9244 22.5813V17.3448ZM13.0689 28.2139C12.4351 26.8832 11.0774 25.9611 9.508 25.9611C8.38648 25.9611 7.37362 26.4327 6.65514 27.187V25.7829L8.53114 24.9773C8.67114 24.9172 8.76181 24.7796 8.76181 24.6273V21.448L10.6869 21.2405L12.7463 24.5174C12.816 24.6283 12.9378 24.6957 13.0689 24.6957H16.2487V25.9799C14.8429 26.1154 13.6507 26.9922 13.0689 28.2139ZM16.2487 23.9338H13.2793L11.5297 21.1498L16.2487 20.6413V23.9338ZM11.9151 16.4651H11.0476V15.6998H11.9151C12.8516 15.6998 13.6136 16.4617 13.6136 17.3982V20.1588L12.8483 20.2413V17.3982C12.8483 16.8838 12.4297 16.4651 11.9151 16.4651ZM9.39857 19.6211C9.39857 19.3765 9.59752 19.1775 9.84219 19.1775C10.0869 19.1775 10.2857 19.3764 10.2857 19.6211V20.5175L9.39857 20.6131V19.6211ZM7.27438 21.6082L8 21.5301V24.3763L6.65524 24.9539V22.2977C6.65524 21.9426 6.92133 21.6462 7.27438 21.6082ZM3.15219 27.3968C3.15219 27.0253 3.45448 26.723 3.826 26.723H5.89333V28.0314H3.15219V27.3968ZM1.32733 30.8788C1.2541 30.9159 1.19476 30.9755 1.15819 31.0489L0.761905 31.8444V30.6098L2.91067 28.7933H3.81438V29.6213L1.32733 30.8788ZM3.36543 32.1697V30.7022L3.90457 30.4295C3.98448 30.6802 4.11476 30.9122 4.28829 31.1097V32.7648L3.36543 32.1697ZM5.1479 30.8417C4.79533 30.6397 4.57629 30.2619 4.57629 29.8556V28.7933H5.72629C5.62276 29.1455 5.56619 29.5176 5.56619 29.9028C5.56619 30.3606 5.64552 30.8002 5.78962 31.2092L5.1479 30.8417ZM9.508 33.0827C7.75457 33.0827 6.3281 31.6562 6.3281 29.9028C6.3281 28.1495 7.75457 26.723 9.508 26.723C11.2614 26.723 12.6879 28.1495 12.6879 29.9028C12.6879 31.6562 11.2614 33.0827 9.508 33.0827ZM16.6296 33.0827C14.8763 33.0827 13.4498 31.6562 13.4498 29.9028C13.4498 28.1495 14.8763 26.723 16.6296 26.723C18.383 26.723 19.8095 28.1495 19.8095 29.9028C19.8095 31.6562 18.383 33.0827 16.6296 33.0827ZM20.5527 29.5219C20.5184 29.1665 20.4365 28.825 20.3138 28.5034H23.619V29.5219H20.5527ZM23.619 27.7415H19.9236C19.6639 27.347 19.3356 27.0019 18.9554 26.723H23.619V27.7415ZM17.0106 25.9611V17.3448H18.1625V22.7858C18.1625 22.9135 18.2265 23.0327 18.333 23.1033L20.6392 24.6322C20.7016 24.6736 20.7749 24.6956 20.8497 24.6956H24.3719C24.5823 24.6956 24.7529 24.525 24.7529 24.3146V17.3448H25.9048V25.9611H17.0106ZM32.3894 26.723H34.3299L38.4697 28.1254H32.3893L32.3894 26.723ZM30.3725 32.8791C30.159 32.2918 30.4264 31.4913 31.075 30.9265C31.5087 30.5489 32.0232 30.3546 32.4818 30.3546C32.709 30.3546 32.9226 30.4023 33.1057 30.4992L30.3725 32.8791ZM33.8571 30.1083C33.047 29.3517 31.618 29.4436 30.5747 30.352C30.1963 30.6815 29.9172 31.0761 29.7456 31.4884C29.0942 31.416 28.5859 30.8626 28.5859 30.1922C28.5859 29.4726 29.1712 28.8873 29.8908 28.8873H40.2499C40.1633 29.2115 40.1166 29.5518 40.1166 29.9029C40.1166 29.9719 40.1184 30.0403 40.1219 30.1083H33.8571ZM44.0582 33.0827C42.3049 33.0827 40.8784 31.6562 40.8784 29.9028C40.8784 28.1495 42.3049 26.723 44.0582 26.723C45.8116 26.723 47.2381 28.1495 47.2381 29.9028C47.2381 31.6562 45.8116 33.0827 44.0582 33.0827Z" stroke="black" stroke-width="0.349091" mask="url(#path-1-outside-1_159_5909)"/>
</g>
<defs>
<clipPath id="clip0_159_5909">
<rect width="48" height="48" fill="white"/>
</clipPath>
</defs>
</svg>
