<svg width="48" height="48" viewBox="0 0 48 48" fill="none" xmlns="http://www.w3.org/2000/svg">
<g clip-path="url(#clip0_159_5901)">
<mask id="path-1-outside-1_159_5901" maskUnits="userSpaceOnUse" x="-1" y="9.47272" width="50" height="28" fill="black">
<rect fill="white" x="-1" y="9.47272" width="50" height="28"/>
<path d="M29.6323 29.8371C28.8726 29.8371 28.2546 30.4552 28.2546 31.2148C28.2546 31.9744 28.8727 32.5925 29.6323 32.5925C30.3919 32.5925 31.01 31.9744 31.01 31.2148C31.01 30.4552 30.3919 29.8371 29.6323 29.8371ZM29.6323 31.8307C29.2928 31.8307 29.0165 31.5544 29.0165 31.2149C29.0165 30.8754 29.2928 30.5991 29.6323 30.5991C29.9718 30.5991 30.2481 30.8754 30.2481 31.2149C30.2481 31.5544 29.9718 31.8307 29.6323 31.8307ZM29.6323 28.2576C28.0016 28.2576 26.675 29.5842 26.675 31.2148C26.675 32.8454 28.0017 34.1721 29.6323 34.1721C31.2629 34.1721 32.5895 32.8454 32.5895 31.2148C32.5895 29.5842 31.2629 28.2576 29.6323 28.2576ZM29.6323 33.4102C28.4218 33.4102 27.437 32.4254 27.437 31.2149C27.437 30.0044 28.4218 29.0196 29.6323 29.0196C30.8428 29.0196 31.8276 30.0044 31.8276 31.2149C31.8276 32.4254 30.8428 33.4102 29.6323 33.4102ZM12.2774 29.8371C11.5177 29.8371 10.8997 30.4552 10.8997 31.2148C10.8997 31.9744 11.5178 32.5925 12.2774 32.5925C13.037 32.5925 13.6551 31.9744 13.6551 31.2148C13.6551 30.4552 13.037 29.8371 12.2774 29.8371ZM12.2774 31.8307C11.9379 31.8307 11.6616 31.5544 11.6616 31.2149C11.6616 30.8754 11.9379 30.5991 12.2774 30.5991C12.617 30.5991 12.8932 30.8754 12.8932 31.2149C12.8932 31.5544 12.617 31.8307 12.2774 31.8307ZM12.2774 28.2576C10.6468 28.2576 9.32019 29.5842 9.32019 31.2148C9.32019 32.8454 10.6469 34.1721 12.2774 34.1721C13.908 34.1721 15.2347 32.8454 15.2347 31.2148C15.2347 29.5842 13.908 28.2576 12.2774 28.2576ZM12.2774 33.4102C11.067 33.4102 10.0821 32.4254 10.0821 31.2149C10.0821 30.0044 11.067 29.0196 12.2774 29.0196C13.4879 29.0196 14.4728 30.0044 14.4728 31.2149C14.4728 32.4254 13.4879 33.4102 12.2774 33.4102ZM1.96781 32.7655C2.04019 32.8541 2.14848 32.9056 2.26295 32.9056H4.84486C5.05524 32.9056 5.22581 32.735 5.22581 32.5246V31.5959H6.32162C6.51895 34.7102 9.114 37.184 12.2773 37.184C14.9815 37.184 17.2701 35.376 18.0011 32.9056H20.1905C20.3125 32.9056 20.4271 32.8471 20.4988 32.7483C20.5704 32.6496 20.5905 32.5224 20.5526 32.4065L20.2882 31.5959H21.7693V32.5246C21.7693 32.735 21.9399 32.9056 22.1503 32.9056H23.9085C24.6395 35.3759 26.9281 37.184 29.6323 37.184C32.1735 37.184 34.3477 35.5871 35.2073 33.3445L35.6198 33.9951C35.6896 34.1053 35.811 34.1721 35.9415 34.1721H38.4705C38.8981 34.4201 39.3879 34.5558 39.8899 34.5558H47.619C47.7586 34.5558 47.8869 34.4796 47.9536 34.357C48.0204 34.2345 48.0148 34.0854 47.9391 33.9681L41.042 23.2855C40.9845 23.1963 40.8925 23.1353 40.788 23.1169C40.6833 23.0985 40.5762 23.1245 40.4917 23.1885L38.5115 24.6903C37.8947 25.1581 37.5068 25.8691 37.4472 26.641L37.31 28.4209L36.4737 27.4777V21.8986C36.4737 21.261 35.955 20.7423 35.3174 20.7423H34.6701C34.1661 20.7423 33.7375 21.067 33.5796 21.5177H31.1869C30.7198 21.0243 30.0689 20.7423 29.3873 20.7423H26.2857C26.1096 20.7423 25.9564 20.8631 25.9153 21.0342C25.8749 21.2027 25.8256 21.3632 25.77 21.5177H25.0288V19.8829C25.0288 19.8572 25.0262 19.8316 25.021 19.8064L23.5968 12.8537C24.0551 12.6736 24.381 12.2277 24.381 11.7061C24.381 11.0261 23.8276 10.4727 23.1474 10.4727L16.543 10.4728C16.3326 10.4728 16.162 10.6434 16.162 10.8538V14.6182H14.2338C14.0234 14.6182 13.8529 14.7888 13.8529 14.9992V18.5874H12.6765L9.42571 15.3636C9.31657 15.2553 9.15295 15.2232 9.01095 15.2824C8.86905 15.3416 8.77657 15.4803 8.77657 15.6341V16.3827H7.51619C7.30581 16.3827 7.13524 16.5533 7.13524 16.7637V18.5874H6.68914C6.64829 18.5874 6.60781 18.594 6.56905 18.6068L1.30781 20.3552C1.1521 20.4069 1.04695 20.5526 1.04695 20.7167V26.6746H0.380952C0.170571 26.6746 0 26.8452 0 27.0556V30.2181C0 30.3058 0.0302857 30.3909 0.0858095 30.4589L1.96781 32.7655ZM12.2774 36.4221C9.40619 36.4221 7.07019 34.0861 7.07019 31.2149C7.07019 28.3436 9.40619 26.0076 12.2774 26.0076C15.1487 26.0076 17.4847 28.3436 17.4847 31.2149C17.4847 34.0861 15.1487 36.4221 12.2774 36.4221ZM9.45143 24.3045C9.50771 24.2362 9.53848 24.1506 9.53848 24.0621V22.6579C9.53848 22.4475 9.3679 22.2769 9.15752 22.2769H7.07009V19.3493H16.162V20.9602H12.6164C12.406 20.9602 12.2354 21.1308 12.2354 21.3412V23.4444C12.2354 23.6548 12.406 23.8254 12.6164 23.8254H14.473L15.1833 26.0034C14.3227 25.5216 13.3319 25.2456 12.2774 25.2456C10.8023 25.2456 9.45133 25.7846 8.40857 26.6746H7.49714L9.45143 24.3045ZM7.07009 25.9948V23.0388H8.77648V23.9253L7.07009 25.9948ZM3.76533 20.3415L6.30829 19.4964V22.277H3.76533V20.3415ZM18.1739 32.1437C18.2214 31.8409 18.2466 31.5308 18.2466 31.2149C18.2466 29.4366 17.464 27.8384 16.2262 26.744L15.1115 23.3263C15.0604 23.1696 14.9143 23.0635 14.7493 23.0635H12.9973V21.7221H16.2666L19.6655 32.1437H18.1739ZM22.8367 12.9397L24.1809 19.502H22.0955V12.9397H22.8367ZM21.7693 25.1463V28.9674H20.9507V25.1463H21.7693ZM20.1888 28.9674H19.431L18.1848 25.1463H20.1888V28.9674ZM20.0397 30.8339L19.6794 29.7292H21.7693V30.8339H20.0397ZM29.6323 36.4221C26.761 36.4221 24.425 34.0861 24.425 31.2149C24.425 28.3436 26.761 26.0076 29.6323 26.0076C32.5035 26.0076 34.8395 28.3436 34.8395 31.2149C34.8395 34.0861 32.5035 36.4221 29.6323 36.4221ZM40.6248 24.0441L46.9197 33.794H45.814L39.8825 24.607L40.6248 24.0441ZM38.207 26.6997C38.2497 26.1448 38.5285 25.6338 38.9719 25.2975L39.2737 25.0686L44.9071 33.794H39.8898C39.3081 33.794 38.7702 33.5589 38.375 33.1321C37.9798 32.7052 37.7868 32.1507 37.8314 31.5707L38.207 26.6997ZM34.6701 21.5043H35.3174C35.5349 21.5043 35.7118 21.6813 35.7118 21.8987V26.6184L34.2756 24.9985V21.8987C34.2757 21.6813 34.4527 21.5043 34.6701 21.5043ZM33.5138 24.1392L31.8652 22.2797H33.5138V24.1392ZM26.5775 21.5043H29.3872C29.878 21.5043 30.3462 21.7149 30.6717 22.0821L37.2285 29.4778L37.0716 31.5121C37.0193 32.191 37.2168 32.8669 37.618 33.4102H36.1509L35.4889 32.366C35.562 31.9933 35.6013 31.6086 35.6013 31.2149C35.6013 27.9235 32.9235 25.2457 29.6322 25.2457C26.3409 25.2457 23.663 27.9235 23.663 31.2149C23.663 31.5308 23.6882 31.8409 23.7357 32.1437H22.5312V25.0851C24.1413 24.7545 25.932 23.6658 26.5775 21.5043ZM25.4093 22.2797C24.6334 23.564 23.2933 24.2083 22.1204 24.3844H22.0955V20.2639H24.2668V21.8988C24.2668 22.1092 24.4373 22.2798 24.6477 22.2798L25.4093 22.2797ZM16.924 11.2347L23.1474 11.2346C23.4074 11.2346 23.619 11.4461 23.619 11.7062C23.619 11.9662 23.4075 12.1778 23.1475 12.1778L16.924 12.1779V11.2347ZM18.4482 12.9398H19.8095V19.502H18.4482V12.9398ZM17.6863 12.9398V19.8829C17.6863 20.0933 17.8569 20.2639 18.0672 20.2639H20.1905C20.4009 20.2639 20.5714 20.0933 20.5714 19.8829V12.9397H21.3336V24.3844H17.9362L16.9239 21.2807V12.9398H17.6863ZM14.6149 15.3801H16.1621V18.5874H14.6149V15.3801ZM11.5945 18.5874H9.53848V16.5483L11.5945 18.5874ZM7.89714 17.1446H8.77657V18.5874H7.89714V17.1446ZM1.80895 20.9916L3.00343 20.5946V22.6579C3.00343 22.8682 3.174 23.0388 3.38438 23.0388H6.30829V26.6746H1.80895V20.9916ZM0.761905 27.4366H7.66C6.89124 28.3744 6.40305 29.5497 6.32162 30.834H4.84495C4.63457 30.834 4.464 31.0045 4.464 31.2149V32.1437H2.44381L0.761905 30.0823V27.4366Z"/>
</mask>
<path d="M29.6323 29.8371C28.8726 29.8371 28.2546 30.4552 28.2546 31.2148C28.2546 31.9744 28.8727 32.5925 29.6323 32.5925C30.3919 32.5925 31.01 31.9744 31.01 31.2148C31.01 30.4552 30.3919 29.8371 29.6323 29.8371ZM29.6323 31.8307C29.2928 31.8307 29.0165 31.5544 29.0165 31.2149C29.0165 30.8754 29.2928 30.5991 29.6323 30.5991C29.9718 30.5991 30.2481 30.8754 30.2481 31.2149C30.2481 31.5544 29.9718 31.8307 29.6323 31.8307ZM29.6323 28.2576C28.0016 28.2576 26.675 29.5842 26.675 31.2148C26.675 32.8454 28.0017 34.1721 29.6323 34.1721C31.2629 34.1721 32.5895 32.8454 32.5895 31.2148C32.5895 29.5842 31.2629 28.2576 29.6323 28.2576ZM29.6323 33.4102C28.4218 33.4102 27.437 32.4254 27.437 31.2149C27.437 30.0044 28.4218 29.0196 29.6323 29.0196C30.8428 29.0196 31.8276 30.0044 31.8276 31.2149C31.8276 32.4254 30.8428 33.4102 29.6323 33.4102ZM12.2774 29.8371C11.5177 29.8371 10.8997 30.4552 10.8997 31.2148C10.8997 31.9744 11.5178 32.5925 12.2774 32.5925C13.037 32.5925 13.6551 31.9744 13.6551 31.2148C13.6551 30.4552 13.037 29.8371 12.2774 29.8371ZM12.2774 31.8307C11.9379 31.8307 11.6616 31.5544 11.6616 31.2149C11.6616 30.8754 11.9379 30.5991 12.2774 30.5991C12.617 30.5991 12.8932 30.8754 12.8932 31.2149C12.8932 31.5544 12.617 31.8307 12.2774 31.8307ZM12.2774 28.2576C10.6468 28.2576 9.32019 29.5842 9.32019 31.2148C9.32019 32.8454 10.6469 34.1721 12.2774 34.1721C13.908 34.1721 15.2347 32.8454 15.2347 31.2148C15.2347 29.5842 13.908 28.2576 12.2774 28.2576ZM12.2774 33.4102C11.067 33.4102 10.0821 32.4254 10.0821 31.2149C10.0821 30.0044 11.067 29.0196 12.2774 29.0196C13.4879 29.0196 14.4728 30.0044 14.4728 31.2149C14.4728 32.4254 13.4879 33.4102 12.2774 33.4102ZM1.96781 32.7655C2.04019 32.8541 2.14848 32.9056 2.26295 32.9056H4.84486C5.05524 32.9056 5.22581 32.735 5.22581 32.5246V31.5959H6.32162C6.51895 34.7102 9.114 37.184 12.2773 37.184C14.9815 37.184 17.2701 35.376 18.0011 32.9056H20.1905C20.3125 32.9056 20.4271 32.8471 20.4988 32.7483C20.5704 32.6496 20.5905 32.5224 20.5526 32.4065L20.2882 31.5959H21.7693V32.5246C21.7693 32.735 21.9399 32.9056 22.1503 32.9056H23.9085C24.6395 35.3759 26.9281 37.184 29.6323 37.184C32.1735 37.184 34.3477 35.5871 35.2073 33.3445L35.6198 33.9951C35.6896 34.1053 35.811 34.1721 35.9415 34.1721H38.4705C38.8981 34.4201 39.3879 34.5558 39.8899 34.5558H47.619C47.7586 34.5558 47.8869 34.4796 47.9536 34.357C48.0204 34.2345 48.0148 34.0854 47.9391 33.9681L41.042 23.2855C40.9845 23.1963 40.8925 23.1353 40.788 23.1169C40.6833 23.0985 40.5762 23.1245 40.4917 23.1885L38.5115 24.6903C37.8947 25.1581 37.5068 25.8691 37.4472 26.641L37.31 28.4209L36.4737 27.4777V21.8986C36.4737 21.261 35.955 20.7423 35.3174 20.7423H34.6701C34.1661 20.7423 33.7375 21.067 33.5796 21.5177H31.1869C30.7198 21.0243 30.0689 20.7423 29.3873 20.7423H26.2857C26.1096 20.7423 25.9564 20.8631 25.9153 21.0342C25.8749 21.2027 25.8256 21.3632 25.77 21.5177H25.0288V19.8829C25.0288 19.8572 25.0262 19.8316 25.021 19.8064L23.5968 12.8537C24.0551 12.6736 24.381 12.2277 24.381 11.7061C24.381 11.0261 23.8276 10.4727 23.1474 10.4727L16.543 10.4728C16.3326 10.4728 16.162 10.6434 16.162 10.8538V14.6182H14.2338C14.0234 14.6182 13.8529 14.7888 13.8529 14.9992V18.5874H12.6765L9.42571 15.3636C9.31657 15.2553 9.15295 15.2232 9.01095 15.2824C8.86905 15.3416 8.77657 15.4803 8.77657 15.6341V16.3827H7.51619C7.30581 16.3827 7.13524 16.5533 7.13524 16.7637V18.5874H6.68914C6.64829 18.5874 6.60781 18.594 6.56905 18.6068L1.30781 20.3552C1.1521 20.4069 1.04695 20.5526 1.04695 20.7167V26.6746H0.380952C0.170571 26.6746 0 26.8452 0 27.0556V30.2181C0 30.3058 0.0302857 30.3909 0.0858095 30.4589L1.96781 32.7655ZM12.2774 36.4221C9.40619 36.4221 7.07019 34.0861 7.07019 31.2149C7.07019 28.3436 9.40619 26.0076 12.2774 26.0076C15.1487 26.0076 17.4847 28.3436 17.4847 31.2149C17.4847 34.0861 15.1487 36.4221 12.2774 36.4221ZM9.45143 24.3045C9.50771 24.2362 9.53848 24.1506 9.53848 24.0621V22.6579C9.53848 22.4475 9.3679 22.2769 9.15752 22.2769H7.07009V19.3493H16.162V20.9602H12.6164C12.406 20.9602 12.2354 21.1308 12.2354 21.3412V23.4444C12.2354 23.6548 12.406 23.8254 12.6164 23.8254H14.473L15.1833 26.0034C14.3227 25.5216 13.3319 25.2456 12.2774 25.2456C10.8023 25.2456 9.45133 25.7846 8.40857 26.6746H7.49714L9.45143 24.3045ZM7.07009 25.9948V23.0388H8.77648V23.9253L7.07009 25.9948ZM3.76533 20.3415L6.30829 19.4964V22.277H3.76533V20.3415ZM18.1739 32.1437C18.2214 31.8409 18.2466 31.5308 18.2466 31.2149C18.2466 29.4366 17.464 27.8384 16.2262 26.744L15.1115 23.3263C15.0604 23.1696 14.9143 23.0635 14.7493 23.0635H12.9973V21.7221H16.2666L19.6655 32.1437H18.1739ZM22.8367 12.9397L24.1809 19.502H22.0955V12.9397H22.8367ZM21.7693 25.1463V28.9674H20.9507V25.1463H21.7693ZM20.1888 28.9674H19.431L18.1848 25.1463H20.1888V28.9674ZM20.0397 30.8339L19.6794 29.7292H21.7693V30.8339H20.0397ZM29.6323 36.4221C26.761 36.4221 24.425 34.0861 24.425 31.2149C24.425 28.3436 26.761 26.0076 29.6323 26.0076C32.5035 26.0076 34.8395 28.3436 34.8395 31.2149C34.8395 34.0861 32.5035 36.4221 29.6323 36.4221ZM40.6248 24.0441L46.9197 33.794H45.814L39.8825 24.607L40.6248 24.0441ZM38.207 26.6997C38.2497 26.1448 38.5285 25.6338 38.9719 25.2975L39.2737 25.0686L44.9071 33.794H39.8898C39.3081 33.794 38.7702 33.5589 38.375 33.1321C37.9798 32.7052 37.7868 32.1507 37.8314 31.5707L38.207 26.6997ZM34.6701 21.5043H35.3174C35.5349 21.5043 35.7118 21.6813 35.7118 21.8987V26.6184L34.2756 24.9985V21.8987C34.2757 21.6813 34.4527 21.5043 34.6701 21.5043ZM33.5138 24.1392L31.8652 22.2797H33.5138V24.1392ZM26.5775 21.5043H29.3872C29.878 21.5043 30.3462 21.7149 30.6717 22.0821L37.2285 29.4778L37.0716 31.5121C37.0193 32.191 37.2168 32.8669 37.618 33.4102H36.1509L35.4889 32.366C35.562 31.9933 35.6013 31.6086 35.6013 31.2149C35.6013 27.9235 32.9235 25.2457 29.6322 25.2457C26.3409 25.2457 23.663 27.9235 23.663 31.2149C23.663 31.5308 23.6882 31.8409 23.7357 32.1437H22.5312V25.0851C24.1413 24.7545 25.932 23.6658 26.5775 21.5043ZM25.4093 22.2797C24.6334 23.564 23.2933 24.2083 22.1204 24.3844H22.0955V20.2639H24.2668V21.8988C24.2668 22.1092 24.4373 22.2798 24.6477 22.2798L25.4093 22.2797ZM16.924 11.2347L23.1474 11.2346C23.4074 11.2346 23.619 11.4461 23.619 11.7062C23.619 11.9662 23.4075 12.1778 23.1475 12.1778L16.924 12.1779V11.2347ZM18.4482 12.9398H19.8095V19.502H18.4482V12.9398ZM17.6863 12.9398V19.8829C17.6863 20.0933 17.8569 20.2639 18.0672 20.2639H20.1905C20.4009 20.2639 20.5714 20.0933 20.5714 19.8829V12.9397H21.3336V24.3844H17.9362L16.9239 21.2807V12.9398H17.6863ZM14.6149 15.3801H16.1621V18.5874H14.6149V15.3801ZM11.5945 18.5874H9.53848V16.5483L11.5945 18.5874ZM7.89714 17.1446H8.77657V18.5874H7.89714V17.1446ZM1.80895 20.9916L3.00343 20.5946V22.6579C3.00343 22.8682 3.174 23.0388 3.38438 23.0388H6.30829V26.6746H1.80895V20.9916ZM0.761905 27.4366H7.66C6.89124 28.3744 6.40305 29.5497 6.32162 30.834H4.84495C4.63457 30.834 4.464 31.0045 4.464 31.2149V32.1437H2.44381L0.761905 30.0823V27.4366Z" fill="black"/>
<path d="M29.6323 29.8371C28.8726 29.8371 28.2546 30.4552 28.2546 31.2148C28.2546 31.9744 28.8727 32.5925 29.6323 32.5925C30.3919 32.5925 31.01 31.9744 31.01 31.2148C31.01 30.4552 30.3919 29.8371 29.6323 29.8371ZM29.6323 31.8307C29.2928 31.8307 29.0165 31.5544 29.0165 31.2149C29.0165 30.8754 29.2928 30.5991 29.6323 30.5991C29.9718 30.5991 30.2481 30.8754 30.2481 31.2149C30.2481 31.5544 29.9718 31.8307 29.6323 31.8307ZM29.6323 28.2576C28.0016 28.2576 26.675 29.5842 26.675 31.2148C26.675 32.8454 28.0017 34.1721 29.6323 34.1721C31.2629 34.1721 32.5895 32.8454 32.5895 31.2148C32.5895 29.5842 31.2629 28.2576 29.6323 28.2576ZM29.6323 33.4102C28.4218 33.4102 27.437 32.4254 27.437 31.2149C27.437 30.0044 28.4218 29.0196 29.6323 29.0196C30.8428 29.0196 31.8276 30.0044 31.8276 31.2149C31.8276 32.4254 30.8428 33.4102 29.6323 33.4102ZM12.2774 29.8371C11.5177 29.8371 10.8997 30.4552 10.8997 31.2148C10.8997 31.9744 11.5178 32.5925 12.2774 32.5925C13.037 32.5925 13.6551 31.9744 13.6551 31.2148C13.6551 30.4552 13.037 29.8371 12.2774 29.8371ZM12.2774 31.8307C11.9379 31.8307 11.6616 31.5544 11.6616 31.2149C11.6616 30.8754 11.9379 30.5991 12.2774 30.5991C12.617 30.5991 12.8932 30.8754 12.8932 31.2149C12.8932 31.5544 12.617 31.8307 12.2774 31.8307ZM12.2774 28.2576C10.6468 28.2576 9.32019 29.5842 9.32019 31.2148C9.32019 32.8454 10.6469 34.1721 12.2774 34.1721C13.908 34.1721 15.2347 32.8454 15.2347 31.2148C15.2347 29.5842 13.908 28.2576 12.2774 28.2576ZM12.2774 33.4102C11.067 33.4102 10.0821 32.4254 10.0821 31.2149C10.0821 30.0044 11.067 29.0196 12.2774 29.0196C13.4879 29.0196 14.4728 30.0044 14.4728 31.2149C14.4728 32.4254 13.4879 33.4102 12.2774 33.4102ZM1.96781 32.7655C2.04019 32.8541 2.14848 32.9056 2.26295 32.9056H4.84486C5.05524 32.9056 5.22581 32.735 5.22581 32.5246V31.5959H6.32162C6.51895 34.7102 9.114 37.184 12.2773 37.184C14.9815 37.184 17.2701 35.376 18.0011 32.9056H20.1905C20.3125 32.9056 20.4271 32.8471 20.4988 32.7483C20.5704 32.6496 20.5905 32.5224 20.5526 32.4065L20.2882 31.5959H21.7693V32.5246C21.7693 32.735 21.9399 32.9056 22.1503 32.9056H23.9085C24.6395 35.3759 26.9281 37.184 29.6323 37.184C32.1735 37.184 34.3477 35.5871 35.2073 33.3445L35.6198 33.9951C35.6896 34.1053 35.811 34.1721 35.9415 34.1721H38.4705C38.8981 34.4201 39.3879 34.5558 39.8899 34.5558H47.619C47.7586 34.5558 47.8869 34.4796 47.9536 34.357C48.0204 34.2345 48.0148 34.0854 47.9391 33.9681L41.042 23.2855C40.9845 23.1963 40.8925 23.1353 40.788 23.1169C40.6833 23.0985 40.5762 23.1245 40.4917 23.1885L38.5115 24.6903C37.8947 25.1581 37.5068 25.8691 37.4472 26.641L37.31 28.4209L36.4737 27.4777V21.8986C36.4737 21.261 35.955 20.7423 35.3174 20.7423H34.6701C34.1661 20.7423 33.7375 21.067 33.5796 21.5177H31.1869C30.7198 21.0243 30.0689 20.7423 29.3873 20.7423H26.2857C26.1096 20.7423 25.9564 20.8631 25.9153 21.0342C25.8749 21.2027 25.8256 21.3632 25.77 21.5177H25.0288V19.8829C25.0288 19.8572 25.0262 19.8316 25.021 19.8064L23.5968 12.8537C24.0551 12.6736 24.381 12.2277 24.381 11.7061C24.381 11.0261 23.8276 10.4727 23.1474 10.4727L16.543 10.4728C16.3326 10.4728 16.162 10.6434 16.162 10.8538V14.6182H14.2338C14.0234 14.6182 13.8529 14.7888 13.8529 14.9992V18.5874H12.6765L9.42571 15.3636C9.31657 15.2553 9.15295 15.2232 9.01095 15.2824C8.86905 15.3416 8.77657 15.4803 8.77657 15.6341V16.3827H7.51619C7.30581 16.3827 7.13524 16.5533 7.13524 16.7637V18.5874H6.68914C6.64829 18.5874 6.60781 18.594 6.56905 18.6068L1.30781 20.3552C1.1521 20.4069 1.04695 20.5526 1.04695 20.7167V26.6746H0.380952C0.170571 26.6746 0 26.8452 0 27.0556V30.2181C0 30.3058 0.0302857 30.3909 0.0858095 30.4589L1.96781 32.7655ZM12.2774 36.4221C9.40619 36.4221 7.07019 34.0861 7.07019 31.2149C7.07019 28.3436 9.40619 26.0076 12.2774 26.0076C15.1487 26.0076 17.4847 28.3436 17.4847 31.2149C17.4847 34.0861 15.1487 36.4221 12.2774 36.4221ZM9.45143 24.3045C9.50771 24.2362 9.53848 24.1506 9.53848 24.0621V22.6579C9.53848 22.4475 9.3679 22.2769 9.15752 22.2769H7.07009V19.3493H16.162V20.9602H12.6164C12.406 20.9602 12.2354 21.1308 12.2354 21.3412V23.4444C12.2354 23.6548 12.406 23.8254 12.6164 23.8254H14.473L15.1833 26.0034C14.3227 25.5216 13.3319 25.2456 12.2774 25.2456C10.8023 25.2456 9.45133 25.7846 8.40857 26.6746H7.49714L9.45143 24.3045ZM7.07009 25.9948V23.0388H8.77648V23.9253L7.07009 25.9948ZM3.76533 20.3415L6.30829 19.4964V22.277H3.76533V20.3415ZM18.1739 32.1437C18.2214 31.8409 18.2466 31.5308 18.2466 31.2149C18.2466 29.4366 17.464 27.8384 16.2262 26.744L15.1115 23.3263C15.0604 23.1696 14.9143 23.0635 14.7493 23.0635H12.9973V21.7221H16.2666L19.6655 32.1437H18.1739ZM22.8367 12.9397L24.1809 19.502H22.0955V12.9397H22.8367ZM21.7693 25.1463V28.9674H20.9507V25.1463H21.7693ZM20.1888 28.9674H19.431L18.1848 25.1463H20.1888V28.9674ZM20.0397 30.8339L19.6794 29.7292H21.7693V30.8339H20.0397ZM29.6323 36.4221C26.761 36.4221 24.425 34.0861 24.425 31.2149C24.425 28.3436 26.761 26.0076 29.6323 26.0076C32.5035 26.0076 34.8395 28.3436 34.8395 31.2149C34.8395 34.0861 32.5035 36.4221 29.6323 36.4221ZM40.6248 24.0441L46.9197 33.794H45.814L39.8825 24.607L40.6248 24.0441ZM38.207 26.6997C38.2497 26.1448 38.5285 25.6338 38.9719 25.2975L39.2737 25.0686L44.9071 33.794H39.8898C39.3081 33.794 38.7702 33.5589 38.375 33.1321C37.9798 32.7052 37.7868 32.1507 37.8314 31.5707L38.207 26.6997ZM34.6701 21.5043H35.3174C35.5349 21.5043 35.7118 21.6813 35.7118 21.8987V26.6184L34.2756 24.9985V21.8987C34.2757 21.6813 34.4527 21.5043 34.6701 21.5043ZM33.5138 24.1392L31.8652 22.2797H33.5138V24.1392ZM26.5775 21.5043H29.3872C29.878 21.5043 30.3462 21.7149 30.6717 22.0821L37.2285 29.4778L37.0716 31.5121C37.0193 32.191 37.2168 32.8669 37.618 33.4102H36.1509L35.4889 32.366C35.562 31.9933 35.6013 31.6086 35.6013 31.2149C35.6013 27.9235 32.9235 25.2457 29.6322 25.2457C26.3409 25.2457 23.663 27.9235 23.663 31.2149C23.663 31.5308 23.6882 31.8409 23.7357 32.1437H22.5312V25.0851C24.1413 24.7545 25.932 23.6658 26.5775 21.5043ZM25.4093 22.2797C24.6334 23.564 23.2933 24.2083 22.1204 24.3844H22.0955V20.2639H24.2668V21.8988C24.2668 22.1092 24.4373 22.2798 24.6477 22.2798L25.4093 22.2797ZM16.924 11.2347L23.1474 11.2346C23.4074 11.2346 23.619 11.4461 23.619 11.7062C23.619 11.9662 23.4075 12.1778 23.1475 12.1778L16.924 12.1779V11.2347ZM18.4482 12.9398H19.8095V19.502H18.4482V12.9398ZM17.6863 12.9398V19.8829C17.6863 20.0933 17.8569 20.2639 18.0672 20.2639H20.1905C20.4009 20.2639 20.5714 20.0933 20.5714 19.8829V12.9397H21.3336V24.3844H17.9362L16.9239 21.2807V12.9398H17.6863ZM14.6149 15.3801H16.1621V18.5874H14.6149V15.3801ZM11.5945 18.5874H9.53848V16.5483L11.5945 18.5874ZM7.89714 17.1446H8.77657V18.5874H7.89714V17.1446ZM1.80895 20.9916L3.00343 20.5946V22.6579C3.00343 22.8682 3.174 23.0388 3.38438 23.0388H6.30829V26.6746H1.80895V20.9916ZM0.761905 27.4366H7.66C6.89124 28.3744 6.40305 29.5497 6.32162 30.834H4.84495C4.63457 30.834 4.464 31.0045 4.464 31.2149V32.1437H2.44381L0.761905 30.0823V27.4366Z" stroke="black" stroke-width="0.436364" mask="url(#path-1-outside-1_159_5901)"/>
</g>
<defs>
<clipPath id="clip0_159_5901">
<rect width="48" height="48" fill="white"/>
</clipPath>
</defs>
</svg>
