<svg width="18" height="18" viewBox="0 0 18 18" fill="none" xmlns="http://www.w3.org/2000/svg">
<g clip-path="url(#clip0_115_37395)">
<path d="M9.00003 0.0317383C7.01549 0.0339216 5.11284 0.823195 3.70948 2.22641C2.30613 3.62963 1.51666 5.53219 1.51428 7.51674C1.51428 9.44424 3.00678 12.4607 5.95053 16.4822C6.30098 16.9623 6.75983 17.3529 7.28973 17.6222C7.81964 17.8914 8.40564 18.0318 9.00003 18.0318C9.59443 18.0318 10.1804 17.8914 10.7103 17.6222C11.2402 17.3529 11.6991 16.9623 12.0495 16.4822C14.9933 12.4607 16.4858 9.44424 16.4858 7.51674C16.4834 5.53219 15.6939 3.62963 14.2906 2.22641C12.8872 0.823195 10.9846 0.0339216 9.00003 0.0317383ZM9.00003 10.5002C8.40669 10.5002 7.82667 10.3243 7.33332 9.99465C6.83997 9.665 6.45546 9.19647 6.22839 8.64829C6.00133 8.10011 5.94192 7.49691 6.05768 6.91497C6.17343 6.33302 6.45915 5.79848 6.87871 5.37892C7.29827 4.95936 7.83282 4.67364 8.41476 4.55788C8.99671 4.44213 9.59991 4.50154 10.1481 4.7286C10.6963 4.95566 11.1648 5.34018 11.4944 5.83353C11.8241 6.32688 12 6.90689 12 7.50024C12 8.29589 11.684 9.05895 11.1214 9.62156C10.5587 10.1842 9.79568 10.5002 9.00003 10.5002Z" fill="#667085"/>
</g>
<defs>
<clipPath id="clip0_115_37395">
<rect width="18" height="18" fill="white"/>
</clipPath>
</defs>
</svg>
