<svg width="40" height="40" viewBox="0 0 40 40" fill="none" xmlns="http://www.w3.org/2000/svg">
<rect width="40" height="40" rx="20" fill="#F0F1F3"/>
<g clip-path="url(#clip0_113_43731)">
<path d="M28.9655 15.1565L22.652 21.47C21.948 22.1722 20.9943 22.5665 20 22.5665C19.0057 22.5665 18.052 22.1722 17.348 21.47L11.0345 15.1565C11.024 15.275 11 15.3822 11 15.5V24.5C11.0012 25.4942 11.3967 26.4473 12.0997 27.1503C12.8027 27.8533 13.7558 28.2488 14.75 28.25H25.25C26.2442 28.2488 27.1973 27.8533 27.9003 27.1503C28.6033 26.4473 28.9988 25.4942 29 24.5V15.5C29 15.3822 28.976 15.275 28.9655 15.1565Z" fill="#667085"/>
<path d="M21.5915 20.4095L28.442 13.5582C28.1102 13.008 27.6421 12.5525 27.083 12.2358C26.5239 11.9191 25.8926 11.7518 25.25 11.75H14.75C14.1075 11.7518 13.4762 11.9191 12.9171 12.2358C12.358 12.5525 11.8899 13.008 11.558 13.5582L18.4085 20.4095C18.8312 20.8305 19.4035 21.0669 20 21.0669C20.5966 21.0669 21.1689 20.8305 21.5915 20.4095Z" fill="#667085"/>
</g>
<defs>
<clipPath id="clip0_113_43731">
<rect width="18" height="18" fill="white" transform="translate(11 11)"/>
</clipPath>
</defs>
</svg>
