<svg width="40" height="40" viewBox="0 0 40 40" fill="none" xmlns="http://www.w3.org/2000/svg">
<rect width="40" height="40" rx="20" fill="#F0F1F3"/>
<g clip-path="url(#clip0_113_43727)">
<path d="M22.2501 11H17.7501C16.7559 11.0012 15.8027 11.3967 15.0997 12.0997C14.3967 12.8027 14.0013 13.7558 14.0001 14.75V23H26.0001V14.75C25.9989 13.7558 25.6034 12.8027 24.9004 12.0997C24.1974 11.3967 23.2443 11.0012 22.2501 11V11Z" fill="#667085"/>
<path d="M14.0001 25.25C14.0013 26.2442 14.3967 27.1973 15.0997 27.9003C15.8027 28.6033 16.7559 28.9988 17.7501 29H22.2501C23.2443 28.9988 24.1974 28.6033 24.9004 27.9003C25.6034 27.1973 25.9989 26.2442 26.0001 25.25V24.5H14.0001V25.25ZM20.0001 26C20.1484 26 20.2934 26.044 20.4167 26.1264C20.5401 26.2088 20.6362 26.3259 20.693 26.463C20.7497 26.6 20.7646 26.7508 20.7357 26.8963C20.7067 27.0418 20.6353 27.1754 20.5304 27.2803C20.4255 27.3852 20.2919 27.4567 20.1464 27.4856C20.0009 27.5145 19.8501 27.4997 19.713 27.4429C19.576 27.3861 19.4589 27.29 19.3765 27.1667C19.294 27.0433 19.2501 26.8983 19.2501 26.75C19.2501 26.5511 19.3291 26.3603 19.4697 26.2197C19.6104 26.079 19.8011 26 20.0001 26Z" fill="#667085"/>
</g>
<defs>
<clipPath id="clip0_113_43727">
<rect width="18" height="18" fill="white" transform="translate(11 11)"/>
</clipPath>
</defs>
</svg>
