<svg width="16" height="16" viewBox="0 0 16 16" fill="none" xmlns="http://www.w3.org/2000/svg">
<path fill-rule="evenodd" clip-rule="evenodd" d="M8.37492 3.33337C8.37492 3.12627 8.20702 2.95837 7.99992 2.95837C7.79281 2.95837 7.62492 3.12627 7.62492 3.33337V7.62504H3.33325C3.12615 7.62504 2.95825 7.79293 2.95825 8.00004C2.95825 8.20715 3.12615 8.37504 3.33325 8.37504H7.62492V12.6667C7.62492 12.8738 7.79281 13.0417 7.99992 13.0417C8.20702 13.0417 8.37492 12.8738 8.37492 12.6667V8.37504H12.6666C12.8737 8.37504 13.0416 8.20715 13.0416 8.00004C13.0416 7.79293 12.8737 7.62504 12.6666 7.62504H8.37492V3.33337Z" fill="#121212"/>
</svg>
