<svg width="40" height="40" viewBox="0 0 40 40" fill="none" xmlns="http://www.w3.org/2000/svg">
<rect width="40" height="40" rx="20" fill="#F0F1F3"/>
<g clip-path="url(#clip0_113_43747)">
<path d="M21.5675 23H22.25C27.2323 23 29 20.375 29 18.125C28.9993 17.5153 28.7863 16.9248 28.3976 16.455C28.0089 15.9851 27.4688 15.6653 26.87 15.5503C26.99 15.3079 27.0925 15.0573 27.1768 14.8003C27.3077 14.3615 27.3334 13.898 27.2518 13.4474C27.1703 12.9969 26.9837 12.5718 26.7073 12.2068C26.4283 11.8306 26.0648 11.5254 25.646 11.3157C25.2273 11.1061 24.765 10.9979 24.2968 11H15.7032C15.2348 10.9982 14.7724 11.1067 14.3536 11.3167C13.9349 11.5268 13.5714 11.8324 13.2927 12.209C13.0163 12.5741 12.8297 12.9991 12.7482 13.4497C12.6666 13.9003 12.6923 14.3637 12.8233 14.8025C12.9075 15.0595 13.01 15.3102 13.13 15.5525C12.5316 15.6674 11.9917 15.987 11.6031 16.4563C11.2145 16.9257 11.0013 17.5157 11 18.125C11 20.375 12.7677 23 17.75 23H18.4325C18.4762 23.2277 18.4988 23.4589 18.5 23.6908V26C18.5129 26.2004 18.4829 26.4011 18.4121 26.589C18.3413 26.7768 18.2312 26.9474 18.0893 27.0893C17.9473 27.2312 17.7768 27.3413 17.5889 27.4121C17.4011 27.4829 17.2003 27.5129 17 27.5H15.5C15.3011 27.5 15.1103 27.579 14.9697 27.7197C14.829 27.8604 14.75 28.0511 14.75 28.25C14.75 28.4489 14.829 28.6397 14.9697 28.7804C15.1103 28.921 15.3011 29 15.5 29H24.5C24.6989 29 24.8897 28.921 25.0303 28.7804C25.171 28.6397 25.25 28.4489 25.25 28.25C25.25 28.0511 25.171 27.8604 25.0303 27.7197C24.8897 27.579 24.6989 27.5 24.5 27.5H23.0045C22.8039 27.5133 22.6027 27.4837 22.4144 27.4131C22.2262 27.3425 22.0551 27.2325 21.9128 27.0905C21.7704 26.9486 21.6599 26.7779 21.5887 26.5898C21.5175 26.4018 21.4873 26.2007 21.5 26V23.69C21.5013 23.4584 21.5238 23.2275 21.5675 23ZM22.7945 20.8618C24.0796 19.7233 25.1914 18.4031 26.0945 16.943C26.1835 16.9799 26.2787 16.9992 26.375 17C26.6734 17 26.9595 17.1186 27.1705 17.3295C27.3815 17.5405 27.5 17.8267 27.5 18.125C27.5 19.757 26.1207 21.5 22.25 21.5H22.208C22.3771 21.2645 22.574 21.0502 22.7945 20.8618ZM17.75 21.5C13.8793 21.5 12.5 19.757 12.5 18.125C12.5 17.8267 12.6185 17.5405 12.8295 17.3295C13.0405 17.1186 13.3266 17 13.625 17C13.7215 16.9993 13.817 16.98 13.9062 16.943C14.8094 18.4031 15.9212 19.7233 17.2062 20.8618C17.4265 21.0502 17.6231 21.2645 17.792 21.5H17.75Z" fill="#667085"/>
</g>
<defs>
<clipPath id="clip0_113_43747">
<rect width="18" height="18" fill="white" transform="translate(11 11)"/>
</clipPath>
</defs>
</svg>
