<svg width="40" height="40" viewBox="0 0 40 40" fill="none" xmlns="http://www.w3.org/2000/svg">
<rect width="40" height="40" rx="20" fill="#F0F1F3"/>
<g clip-path="url(#clip0_113_43743)">
<path d="M25.25 11H14.75C13.7554 11 12.8016 11.3951 12.0983 12.0983C11.3951 12.8016 11 13.7554 11 14.75V14.75C11 15.3467 11.2371 15.919 11.659 16.341C12.081 16.7629 12.6533 17 13.25 17H26.75C27.3204 17.007 27.8717 16.7948 28.2904 16.4073C28.709 16.0198 28.963 15.4865 29 14.9173C29.0221 14.411 28.9414 13.9056 28.7629 13.4314C28.5844 12.9572 28.3118 12.524 27.9614 12.158C27.611 11.7919 27.1901 11.5007 26.7241 11.3016C26.2581 11.1026 25.7567 11 25.25 11V11Z" fill="#667085"/>
<path d="M27.4999 18.5H12.4999C12.301 18.5 12.1102 18.579 11.9695 18.7197C11.8289 18.8603 11.7499 19.0511 11.7499 19.25V25.25C11.7511 26.2442 12.1465 27.1973 12.8495 27.9003C13.5525 28.6033 14.5057 28.9988 15.4999 29H24.4999C25.4941 28.9988 26.4472 28.6033 27.1502 27.9003C27.8532 27.1973 28.2487 26.2442 28.2499 25.25V19.25C28.2499 19.0511 28.1709 18.8603 28.0302 18.7197C27.8896 18.579 27.6988 18.5 27.4999 18.5ZM22.2499 22.25H17.7499C17.551 22.25 17.3602 22.171 17.2195 22.0303C17.0789 21.8897 16.9999 21.6989 16.9999 21.5C16.9999 21.3011 17.0789 21.1103 17.2195 20.9697C17.3602 20.829 17.551 20.75 17.7499 20.75H22.2499C22.4488 20.75 22.6396 20.829 22.7802 20.9697C22.9209 21.1103 22.9999 21.3011 22.9999 21.5C22.9999 21.6989 22.9209 21.8897 22.7802 22.0303C22.6396 22.171 22.4488 22.25 22.2499 22.25Z" fill="#667085"/>
</g>
<defs>
<clipPath id="clip0_113_43743">
<rect width="18" height="18" fill="white" transform="translate(11 11)"/>
</clipPath>
</defs>
</svg>
