<svg width="24" height="24" viewBox="0 0 24 24" fill="none" xmlns="http://www.w3.org/2000/svg">
<path d="M9 7L9.75 7L9 7ZM9.75 6C9.75 5.58579 9.41421 5.25 9 5.25C8.58579 5.25 8.25 5.58579 8.25 6L9.75 6ZM15.75 6C15.75 5.58579 15.4142 5.25 15 5.25C14.5858 5.25 14.25 5.58579 14.25 6H15.75ZM15 7L15.75 7V7H15ZM12 10V10.75V10ZM9.75 7L9.75 6L8.25 6L8.25 7L9.75 7ZM14.25 6V7H15.75V6H14.25ZM12 9.25C10.7574 9.25 9.75 8.24264 9.75 7L8.25 7C8.25 9.07107 9.92893 10.75 12 10.75V9.25ZM12 10.75C14.0711 10.75 15.75 9.07107 15.75 7L14.25 7C14.25 8.24264 13.2426 9.25 12 9.25V10.75Z" fill="#141718"/>
<path d="M19.557 6.3424L20.2968 6.2191V6.2191L19.557 6.3424ZM21.2237 16.3424L20.4839 16.4657L21.2237 16.3424ZM4.44291 6.3424L3.70311 6.2191V6.2191L4.44291 6.3424ZM2.77624 16.3424L3.51603 16.4657L2.77624 16.3424ZM8.38848 3.75H15.6115V2.25H8.38848V3.75ZM18.8172 6.4657L20.4839 16.4657L21.9635 16.2191L20.2968 6.2191L18.8172 6.4657ZM17.2781 20.25H6.72182V21.75H17.2781V20.25ZM3.70311 6.2191L2.03644 16.2191L3.51603 16.4657L5.1827 6.4657L3.70311 6.2191ZM8.38848 2.25C6.0665 2.25 4.08484 3.92871 3.70311 6.2191L5.1827 6.4657C5.44389 4.89859 6.79975 3.75 8.38848 3.75V2.25ZM15.6115 3.75C17.2002 3.75 18.5561 4.89859 18.8172 6.4657L20.2968 6.2191C19.9151 3.92871 17.9335 2.25 15.6115 2.25V3.75ZM20.4839 16.4657C20.8141 18.4467 19.2864 20.25 17.2781 20.25V21.75C20.2133 21.75 22.446 19.1144 21.9635 16.2191L20.4839 16.4657ZM6.72182 20.25C4.71351 20.25 3.18587 18.4467 3.51603 16.4657L2.03644 16.2191C1.5539 19.1144 3.7866 21.75 6.72182 21.75V20.25Z" fill="#141718"/>
</svg>
