<svg width="36" height="36" viewBox="0 0 36 36" fill="none" xmlns="http://www.w3.org/2000/svg">
<rect width="36" height="36" rx="8" fill="#F4ECFB"/>
<g clip-path="url(#clip0_130_34572)">
<path d="M23.25 12H12.75C11.7558 12.0012 10.8027 12.3967 10.0997 13.0997C9.39666 13.8027 9.00119 14.7558 9 15.75V20.25C9.00119 21.2442 9.39666 22.1973 10.0997 22.9003C10.8027 23.6033 11.7558 23.9988 12.75 24H23.25C24.2442 23.9988 25.1973 23.6033 25.9003 22.9003C26.6033 22.1973 26.9988 21.2442 27 20.25V15.75C26.9988 14.7558 26.6033 13.8027 25.9003 13.0997C25.1973 12.3967 24.2442 12.0012 23.25 12ZM12 21.75C11.8517 21.75 11.7067 21.706 11.5833 21.6236C11.46 21.5412 11.3639 21.4241 11.3071 21.287C11.2503 21.15 11.2355 20.9992 11.2644 20.8537C11.2933 20.7082 11.3648 20.5746 11.4697 20.4697C11.5746 20.3648 11.7082 20.2934 11.8537 20.2644C11.9992 20.2355 12.15 20.2503 12.287 20.3071C12.4241 20.3639 12.5412 20.46 12.6236 20.5833C12.706 20.7067 12.75 20.8517 12.75 21C12.75 21.1989 12.671 21.3897 12.5303 21.5303C12.3897 21.671 12.1989 21.75 12 21.75ZM12 15.75C11.8517 15.75 11.7067 15.706 11.5833 15.6236C11.46 15.5412 11.3639 15.4241 11.3071 15.287C11.2503 15.15 11.2355 14.9992 11.2644 14.8537C11.2933 14.7082 11.3648 14.5746 11.4697 14.4697C11.5746 14.3648 11.7082 14.2933 11.8537 14.2644C11.9992 14.2355 12.15 14.2503 12.287 14.3071C12.4241 14.3639 12.5412 14.46 12.6236 14.5833C12.706 14.7067 12.75 14.8517 12.75 15C12.75 15.1989 12.671 15.3897 12.5303 15.5303C12.3897 15.671 12.1989 15.75 12 15.75ZM18 21C17.4067 21 16.8266 20.8241 16.3333 20.4944C15.8399 20.1648 15.4554 19.6962 15.2284 19.1481C15.0013 18.5999 14.9419 17.9967 15.0576 17.4147C15.1734 16.8328 15.4591 16.2982 15.8787 15.8787C16.2982 15.4591 16.8328 15.1734 17.4147 15.0576C17.9967 14.9419 18.5999 15.0013 19.1481 15.2284C19.6962 15.4554 20.1648 15.8399 20.4944 16.3333C20.8241 16.8266 21 17.4067 21 18C21 18.7956 20.6839 19.5587 20.1213 20.1213C19.5587 20.6839 18.7956 21 18 21ZM24 21.75C23.8517 21.75 23.7067 21.706 23.5833 21.6236C23.46 21.5412 23.3639 21.4241 23.3071 21.287C23.2503 21.15 23.2355 20.9992 23.2644 20.8537C23.2934 20.7082 23.3648 20.5746 23.4697 20.4697C23.5746 20.3648 23.7082 20.2934 23.8537 20.2644C23.9992 20.2355 24.15 20.2503 24.287 20.3071C24.4241 20.3639 24.5412 20.46 24.6236 20.5833C24.706 20.7067 24.75 20.8517 24.75 21C24.75 21.1989 24.671 21.3897 24.5303 21.5303C24.3897 21.671 24.1989 21.75 24 21.75ZM24 15.75C23.8517 15.75 23.7067 15.706 23.5833 15.6236C23.46 15.5412 23.3639 15.4241 23.3071 15.287C23.2503 15.15 23.2355 14.9992 23.2644 14.8537C23.2934 14.7082 23.3648 14.5746 23.4697 14.4697C23.5746 14.3648 23.7082 14.2933 23.8537 14.2644C23.9992 14.2355 24.15 14.2503 24.287 14.3071C24.4241 14.3639 24.5412 14.46 24.6236 14.5833C24.706 14.7067 24.75 14.8517 24.75 15C24.75 15.1989 24.671 15.3897 24.5303 15.5303C24.3897 15.671 24.1989 15.75 24 15.75ZM19.5 18C19.5 18.2967 19.412 18.5867 19.2472 18.8334C19.0824 19.08 18.8481 19.2723 18.574 19.3858C18.2999 19.4994 17.9983 19.5291 17.7074 19.4712C17.4164 19.4133 17.1491 19.2704 16.9393 19.0607C16.7296 18.8509 16.5867 18.5836 16.5288 18.2926C16.4709 18.0017 16.5006 17.7001 16.6142 17.426C16.7277 17.1519 16.92 16.9176 17.1666 16.7528C17.4133 16.588 17.7033 16.5 18 16.5C18.3978 16.5 18.7794 16.658 19.0607 16.9393C19.342 17.2206 19.5 17.6022 19.5 18Z" fill="#883DCF"/>
</g>
<defs>
<clipPath id="clip0_130_34572">
<rect width="18" height="18" fill="white" transform="translate(9 9)"/>
</clipPath>
</defs>
</svg>
