<svg width="48" height="48" viewBox="0 0 48 48" fill="none" xmlns="http://www.w3.org/2000/svg">
<path d="M13.7782 26.1187C11.9391 26.1187 10.2822 27.225 9.57824 28.9244C8.87596 30.6221 9.26461 32.5773 10.5635 33.878C11.864 35.1786 13.8191 35.5672 15.5171 34.8632C17.2165 34.1593 18.3245 32.5024 18.3245 30.6632C18.3245 28.1541 16.289 26.1187 13.7782 26.1187ZM13.7782 33.392V33.3903C12.6754 33.3903 11.6799 32.7273 11.2589 31.7079C10.8362 30.6886 11.0697 29.5159 11.8504 28.7352C12.6294 27.9545 13.8022 27.721 14.8215 28.1437C15.8408 28.5664 16.5056 29.5602 16.5056 30.663C16.5073 31.3892 16.2209 32.0846 15.7095 32.5977C15.1982 33.1108 14.5027 33.4005 13.7783 33.4005L13.7782 33.392ZM40.2328 27.8232V25.9822C40.2311 25.0873 39.8953 24.2266 39.2919 23.5686L37.8056 21.951V21.9493C37.1288 21.2129 36.1743 20.7936 35.1738 20.7902H31.6829V16.4726C31.6829 16.1641 31.5277 15.8777 31.2686 15.709L28.9965 14.2175C28.7954 14.0863 28.5482 14.0402 28.313 14.0897C28.076 14.1391 27.8698 14.2806 27.7369 14.4817C27.4624 14.9027 27.58 15.4652 28.0011 15.7414L29.8829 16.9635V20.7902H26.4277L23.7005 14.9591H25.0062C25.2465 14.9591 25.4783 14.8636 25.6488 14.6932C25.8193 14.5227 25.9147 14.2909 25.9147 14.0506V11.4358C25.9147 10.8341 25.6761 10.2562 25.2482 9.83009C24.8221 9.40225 24.2443 9.16364 23.6426 9.16364H10.5517C9.29541 9.16364 8.27781 10.1812 8.27781 11.4358V14.0642C8.27781 14.3045 8.37497 14.5363 8.54542 14.7068C8.71588 14.8773 8.94599 14.9727 9.18805 14.9727H10.579V22.8002C8.02043 23.8264 6.11627 26.0286 5.4722 28.7081C4.82786 31.3894 5.52163 34.2155 7.33525 36.2934C9.14716 38.3696 11.8538 39.44 14.5968 39.1639C17.3398 38.8878 19.7786 37.3008 21.1422 34.9042H29.9428C30.6229 36.7844 32.1365 38.2417 34.0405 38.8503C35.9445 39.4605 38.0224 39.1554 39.6688 38.0219C41.3153 36.8883 42.3449 35.056 42.454 33.06C42.5648 31.0657 41.7449 29.131 40.233 27.8236L40.2328 27.8232ZM36.4419 23.1733L37.9282 24.796C38.235 25.1148 38.4072 25.5392 38.414 25.9824V26.7324C37.0743 26.1938 35.5896 26.1273 34.2055 26.5415H27.5968V24.2677C27.5934 23.6949 27.4758 23.1273 27.2508 22.6006H35.1511C35.642 22.6006 36.1112 22.8085 36.4419 23.1733ZM10.0964 11.436C10.0964 11.1854 10.2993 10.9825 10.5516 10.9825H23.6425C23.7618 10.9825 23.8777 11.0303 23.9629 11.1155C24.0481 11.2007 24.0959 11.3166 24.0959 11.4359V13.1541H10.0965L10.0964 11.436ZM21.6871 14.9729L22.882 17.5416H12.3958V14.9541L21.6871 14.9729ZM12.3956 19.3418H23.7324L25.5511 23.2503C25.6977 23.5707 25.7727 23.9202 25.7727 24.273V26.5452H21.2267H21.2284C20.4903 25.2156 19.4113 24.1077 18.1005 23.3372C16.7914 22.5651 15.2982 22.1594 13.7778 22.1594C13.321 22.1611 12.8642 22.2037 12.4142 22.2821L12.3956 19.3418ZM13.778 37.3453C12.0019 37.3453 10.2973 36.6396 9.0413 35.3833C7.78505 34.1254 7.08107 32.4208 7.08277 30.6449C7.08447 28.867 7.79186 27.1642 9.04981 25.9094C10.3078 24.6549 12.014 23.9509 13.79 23.9543C15.5679 23.9577 17.269 24.6668 18.5237 25.9265C19.7765 27.1861 20.4788 28.8924 20.4737 30.6684C20.4686 32.4412 19.7612 34.1389 18.5067 35.3916C17.2504 36.6428 15.5508 37.3453 13.778 37.3453ZM21.9598 33.0686C22.4235 31.5259 22.432 29.8845 21.9871 28.3366H31.2734C30.1688 29.523 29.5552 31.0844 29.5552 32.7055V33.0686L21.9598 33.0686ZM36.0513 37.3453C34.1729 37.347 32.4803 36.2186 31.7593 34.4833C31.04 32.7498 31.4354 30.7538 32.7633 29.4241C34.0894 28.0963 36.0872 27.6991 37.8207 28.4167C39.556 29.1343 40.6878 30.827 40.6878 32.7054C40.6861 33.9412 40.1918 35.1258 39.3156 35.9969C38.4378 36.8679 37.2497 37.3537 36.0139 37.3451L36.0513 37.3453ZM36.0513 29.7412C34.8496 29.7395 33.7655 30.4622 33.3053 31.5719C32.8451 32.6815 33.0973 33.9583 33.9479 34.8088C34.7968 35.6577 36.0752 35.9116 37.1849 35.4515C38.2945 34.9895 39.0156 33.9054 39.0138 32.7054C39.0087 31.9162 38.6883 31.1628 38.1258 30.6088C37.5632 30.0566 36.8031 29.7515 36.0138 29.76L36.0513 29.7412ZM36.0513 33.8321C35.586 33.8338 35.165 33.5543 34.9843 33.1247C34.8053 32.6952 34.9025 32.2008 35.2315 31.8702C35.5604 31.5412 36.0547 31.4423 36.486 31.6196C36.9155 31.7969 37.1968 32.2162 37.1968 32.6815C37.207 33.0003 37.0877 33.3071 36.8627 33.5338C36.6394 33.7588 36.3326 33.8815 36.0138 33.873L36.0513 33.8321Z" fill="black"/>
</svg>
