<svg width="48" height="48" viewBox="0 0 48 48" fill="none" xmlns="http://www.w3.org/2000/svg">
<path d="M45.5122 21.2496L23.6038 7.13455C23.2119 6.88237 22.6897 6.99487 22.4375 7.38674L18.8319 12.9817C18.7109 13.1702 18.6688 13.398 18.7166 13.6174C18.7634 13.8358 18.8966 14.0271 19.0841 14.148L24.4831 17.6271L23.9113 18.5008L23.5972 18.2955C23.21 18.0424 22.6916 18.1483 22.4347 18.5327L16.9634 26.7114H15.7147V15.138C15.7147 14.6721 15.3369 14.2942 14.8709 14.2942H6.91156C6.60969 14.2942 6.33125 14.4555 6.18031 14.7171L2.1125 21.783C2.03844 21.9114 2 22.0558 2 22.2039V35.478C2 35.9439 2.37781 36.3217 2.84375 36.3217H6.99312C7.37844 38.5014 9.28531 40.1636 11.5738 40.1636C13.8622 40.1636 15.7691 38.5014 16.1544 36.3217H29.7266C30.1119 38.5014 32.0188 40.1636 34.3072 40.1636C36.5956 40.1636 38.5025 38.5014 38.8878 36.3217H41.4884C41.9544 36.3217 42.3322 35.9439 42.3322 35.478V27.7455L45.7653 22.4167C46.0175 22.0249 45.9041 21.5027 45.5122 21.2496ZM25.9025 18.5411L38.585 26.7124H21.8853L25.8031 20.748C25.9259 20.5605 25.97 20.3327 25.9241 20.1133C25.8781 19.8939 25.7478 19.7017 25.5603 19.5789L25.325 19.4252L25.9025 18.5411ZM23.3741 20.1649L23.9291 20.5277L19.8669 26.7124H18.995L23.3741 20.1649ZM3.6875 22.4299L7.39906 15.9817H14.0281V26.7124H10.1778C9.54688 26.7124 8.94031 26.9439 8.47063 27.3639L5.5175 29.9992C4.97281 30.4849 4.66063 31.1824 4.66063 31.9127V34.6352H3.6875V22.4299ZM14.5391 35.5108C14.5391 37.1458 13.2088 38.4761 11.5738 38.4761C9.93875 38.4761 8.60844 37.1458 8.60844 35.5108V35.4855C8.6225 33.8646 9.95281 32.5455 11.5738 32.5455C13.1938 32.5455 14.5231 33.8627 14.5391 35.4817V35.5108ZM37.2725 35.5108C37.2725 37.1458 35.9422 38.4761 34.3072 38.4761C32.6722 38.4761 31.3419 37.1458 31.3419 35.5108V35.4855C31.3559 33.8646 32.6863 32.5455 34.3072 32.5455C35.9272 32.5455 37.2566 33.8627 37.2725 35.4817V35.5108ZM40.6447 34.6342H38.8756C38.4622 32.4892 36.5656 30.858 34.3072 30.858C32.0506 30.858 30.155 32.4864 29.7397 34.6342H16.1422C15.7288 32.4892 13.8322 30.858 11.5738 30.858C9.31719 30.858 7.42156 32.4864 7.00625 34.6342H6.34812V31.9117C6.34812 31.6624 6.455 31.4242 6.64063 31.2574L9.59375 28.6221C9.75406 28.4786 9.96219 28.3999 10.1778 28.3999H40.6447V34.6342ZM41.1988 26.3889L20.7078 13.1871L23.3994 9.01049L43.8894 22.2114L41.1988 26.3889Z" fill="black"/>
</svg>
