<svg width="48" height="48" viewBox="0 0 48 48" fill="none" xmlns="http://www.w3.org/2000/svg">
<path fill-rule="evenodd" clip-rule="evenodd" d="M18.7175 32.3895C18.7175 32.1423 18.7004 31.8986 18.668 31.6599C18.5964 31.5457 18.5538 31.411 18.5538 31.2662C18.5538 31.2201 18.5589 31.1741 18.5658 31.1298C18.3339 30.1821 17.8431 29.3349 17.1748 28.6667C16.222 27.7139 14.9061 27.1259 13.4521 27.1259C11.9982 27.1259 10.6822 27.7156 9.72944 28.6667C8.77659 29.6196 8.18855 30.9355 8.18855 32.3894C8.18855 33.8434 8.77834 35.1594 9.72944 36.1122C10.6823 37.065 11.9982 37.653 13.4521 37.653C14.9061 37.653 16.222 37.0633 17.1748 36.1122C17.7442 35.5428 18.1822 34.8457 18.4448 34.065C18.4516 33.9525 18.4857 33.8451 18.5385 33.7531C18.6544 33.3184 18.7158 32.8616 18.7158 32.3911L18.7175 32.3895ZM18.2146 27.6287C16.9959 26.41 15.3118 25.6566 13.4539 25.6566C11.8602 25.6566 10.3943 26.2106 9.2403 27.1378L9.09541 26.9929C9.05962 26.906 9.00678 26.8259 8.93689 26.756C8.57382 26.3912 8.29085 25.9617 8.09824 25.4947C7.90733 25.031 7.80506 24.5265 7.80506 24.0083C7.80506 23.9095 7.78631 23.8157 7.75051 23.7288V21.8333L25.9875 27.1482C26.0437 27.1635 26.0983 27.1738 26.1545 27.1755C26.6625 27.2897 27.1773 27.2266 27.6221 27.0204C28.1096 26.7937 28.5187 26.3948 28.754 25.8664L28.7812 25.7948L29.429 24.3306H39.9445C40.0195 24.3306 40.0928 24.3187 40.1609 24.2982C40.3126 24.334 40.449 24.4124 40.5564 24.5181C40.6621 24.6238 40.7405 24.7601 40.7763 24.9118C40.7541 24.98 40.7439 25.0533 40.7439 25.1283V30.5301H40.2547C39.9359 29.417 39.3376 28.4233 38.5416 27.6272C37.3229 26.4085 35.6388 25.6551 33.7809 25.6551C31.9212 25.6551 30.2388 26.4085 29.0202 27.6272C28.2241 28.4233 27.6258 29.4187 27.3071 30.5301H19.9299C19.6112 29.417 19.0129 28.4233 18.2168 27.6272L18.2146 27.6287ZM20.1766 32.0011C20.1834 32.1306 20.1868 32.2585 20.1868 32.3897C20.1868 32.7272 20.1612 33.0579 20.1152 33.3801H27.1193C27.0716 33.0562 27.0477 32.7255 27.0477 32.3897C27.0477 32.2585 27.0511 32.1289 27.0596 32.0011H20.1766ZM6.71912 32.3897C6.71912 30.796 7.27308 29.3301 8.20035 28.1761L7.86627 27.842C7.78786 27.7636 7.7299 27.6716 7.69581 27.5727C7.29354 27.1193 6.97311 26.6045 6.74467 26.0523C6.51967 25.5085 6.38501 24.929 6.34751 24.3392C6.3049 24.2471 6.28274 24.1449 6.28274 24.0358V21.3051C6.03558 21.1534 5.8208 20.9557 5.64866 20.7273C5.36911 20.354 5.20208 19.8989 5.18842 19.4165C5.14922 18.0187 5.20547 16.5903 5.18672 15.1875C5.18672 14.5585 5.4441 13.9858 5.85833 13.5682L5.86344 13.5631C6.26742 13.1608 6.81458 12.9068 7.42139 12.8915C12.5399 12.767 17.7475 12.9562 22.88 12.8898C23.2567 12.8898 23.6198 12.8011 23.9419 12.6392C24.2198 12.4994 24.4703 12.3051 24.6749 12.0648C24.6885 12.0392 24.7056 12.0136 24.7243 11.9881L25.1624 11.3847C25.2118 11.3148 25.2732 11.2568 25.3397 11.2108C25.8238 10.6125 26.4255 10.1301 27.097 9.79261C27.8266 9.42443 28.6379 9.22329 29.4698 9.21818C32.7152 9.16875 36.0052 9.21818 39.2557 9.21818C39.3409 9.18239 39.4346 9.16364 39.5335 9.16364C40.1659 9.16364 40.7386 9.42102 41.1545 9.83524L41.1579 9.83865C41.5738 10.2546 41.8295 10.8273 41.8295 11.4597C41.8261 11.7358 41.8346 12.0136 41.8278 12.2898C41.8125 12.8983 41.5585 13.4488 41.1562 13.8511H41.1528C40.8017 14.2005 40.3414 14.4392 39.8266 14.5039C39.7295 14.5517 39.6204 14.5772 39.5062 14.5772H36.8335C37.4573 14.7596 38.0147 15.0971 38.4613 15.5454C39.155 16.2392 39.5829 17.1954 39.5829 18.254C39.5829 18.3528 39.5642 18.4466 39.5284 18.5335V22.8614H39.6937C39.7789 22.8256 39.8727 22.8068 39.9715 22.8068C40.6056 22.8068 41.1801 23.0642 41.5943 23.4801C42.0102 23.896 42.2659 24.4704 42.2659 25.1029C42.2659 25.2017 42.2472 25.2955 42.2114 25.3807V30.6153C42.5182 30.7295 42.7909 30.9085 43.0125 31.1369L43.021 31.1454C43.4011 31.5392 43.6364 32.0761 43.6364 32.6625C43.6364 33.2506 43.4028 33.7858 43.021 34.1796L43.0176 34.183C42.6494 34.5631 42.1398 34.8119 41.5704 34.8426C41.5397 34.846 41.5091 34.8477 41.4767 34.8477H40.0483C39.7074 35.7171 39.1892 36.4995 38.5398 37.1488C38.3625 37.3261 38.1733 37.4949 37.9773 37.6517H41.8602C42.2659 37.6517 42.5949 37.9806 42.5949 38.3863C42.5949 38.792 42.2659 39.121 41.8602 39.121L5.09831 39.1244C4.69263 39.1244 4.36365 38.7954 4.36365 38.3897C4.36365 37.9841 4.69263 37.6551 5.09831 37.6551H9.25397C9.05795 37.4983 8.86875 37.3295 8.69146 37.1523C7.4727 35.9335 6.71931 34.2494 6.71931 32.3915L6.71912 32.3897ZM18.2147 37.1505C18.8641 36.501 19.3823 35.7187 19.7232 34.8493H27.5097C27.8506 35.7187 28.3688 36.5011 29.0182 37.1505C29.1954 37.3277 29.3847 37.4965 29.5807 37.6533H17.6523C17.8483 37.4965 18.0374 37.3277 18.2147 37.1505ZM35.7373 15.893H33.3782C33.1191 16.1862 32.9027 16.522 32.7373 16.8919C32.7151 16.943 32.6862 16.9908 32.6538 17.0351L30.0765 22.8614H38.0554V18.2813C38.0554 18.1927 38.0708 18.1075 38.0998 18.0291C38.0469 17.4665 37.7963 16.962 37.4196 16.5836C36.9935 16.1575 36.402 15.8916 35.7509 15.8916H35.7373L35.7373 15.893ZM32.2941 14.9078C32.3691 14.7032 32.5311 14.5413 32.7356 14.468C32.9367 14.289 33.1515 14.1254 33.3765 13.9788C34.2203 13.43 35.214 13.118 36.2572 13.1095C37.2527 13.0993 38.2566 13.1095 39.2538 13.1095C39.3391 13.0737 39.4345 13.0549 39.5334 13.0549C39.7635 13.0549 39.9714 12.9629 40.1198 12.8146L40.118 12.8129C40.268 12.6629 40.3601 12.4566 40.3601 12.2283C40.3601 11.9726 40.3635 11.7169 40.3601 11.4612C40.3601 11.2311 40.2681 11.0232 40.1198 10.8748C40.0141 10.7692 39.8777 10.6907 39.7243 10.6567C39.6561 10.6788 39.5828 10.689 39.5061 10.689H29.5073C28.8868 10.689 28.2885 10.8356 27.755 11.1032C27.2181 11.3743 26.7425 11.768 26.376 12.2641C26.3334 12.322 26.2823 12.3714 26.2277 12.4141L26.0215 12.697C26.0027 12.7362 25.9789 12.7737 25.9533 12.8095C25.5919 13.297 25.1266 13.6839 24.5999 13.9482C24.0698 14.2141 23.4817 14.359 22.8783 14.359C17.7645 14.2942 12.6032 14.359 7.48294 14.359C7.25283 14.359 7.04487 14.451 6.8983 14.5976L6.89489 14.601C6.7466 14.7493 6.65625 14.9556 6.65625 15.1856C6.63921 16.5697 6.65625 17.9641 6.65625 19.3499C6.65625 19.5374 6.71591 19.7095 6.81989 19.8476C6.92387 19.9874 7.07387 20.0947 7.25114 20.1459C7.30057 20.1595 7.3483 20.18 7.39091 20.2021L26.2789 25.706C26.3266 25.7094 26.3761 25.7179 26.4255 25.7333C26.6232 25.7912 26.8312 25.7708 27.0101 25.6872C27.155 25.6208 27.2795 25.5117 27.3664 25.3719L27.3851 25.3259L28.2101 23.4594C28.2323 23.3452 28.2783 23.2395 28.3465 23.1492L31.384 16.2852C31.4095 16.2289 31.4402 16.1778 31.476 16.1301C31.6942 15.6801 31.972 15.2692 32.2959 14.9045L32.2941 14.9078ZM41.6659 31.977C41.6063 31.9924 41.5432 32.0009 41.4784 32.0009H40.5034C40.5102 32.1304 40.5136 32.2583 40.5136 32.3895C40.5136 32.727 40.4881 33.0577 40.442 33.3799H41.5074C41.6864 33.3662 41.8483 33.2861 41.9676 33.1651C42.092 33.0355 42.1687 32.8583 42.1687 32.664C42.1687 32.4679 42.092 32.2907 41.9676 32.1628L41.9659 32.1611C41.8841 32.0776 41.7818 32.0128 41.6676 31.977L41.6659 31.977ZM38.7222 34.2083C38.7188 34.1776 38.7153 34.1469 38.7153 34.1145C38.7153 33.9287 38.7835 33.7617 38.896 33.6321C38.9932 33.2333 39.0443 32.8174 39.0443 32.3895C39.0443 32.1423 39.0273 31.8986 38.9949 31.6599C38.9233 31.5457 38.8807 31.4111 38.8807 31.2662C38.8807 31.2202 38.8858 31.1742 38.8926 31.1298C38.6608 30.1821 38.1699 29.3349 37.5017 28.6668C36.5489 27.7139 35.233 27.1259 33.779 27.1259C32.325 27.1259 31.0091 27.7157 30.0563 28.6668C29.1034 29.6196 28.5154 30.9355 28.5154 32.3895C28.5154 33.8434 29.1052 35.1594 30.0563 36.1122C31.0091 37.065 32.325 37.6531 33.779 37.6531C35.233 37.6531 36.5489 37.0633 37.5017 36.1122C38.0352 35.5786 38.4545 34.931 38.7205 34.2082L38.7222 34.2083ZM34.8818 32.3895C34.8818 32.0844 34.7591 31.8083 34.5614 31.6105L34.5596 31.6122C34.3602 31.4128 34.0858 31.2901 33.7807 31.2901C33.4772 31.2901 33.2011 31.4128 33.0017 31.6122C32.8022 31.8117 32.6795 32.0861 32.6795 32.3912C32.6795 32.6946 32.8022 32.9708 33.0017 33.1702C33.2011 33.3697 33.4755 33.4924 33.7807 33.4924C34.0841 33.4924 34.3602 33.3697 34.5596 33.1702C34.7591 32.9708 34.8818 32.6964 34.8818 32.3912L34.8818 32.3895ZM35.5977 30.5759V30.5725C35.1324 30.1072 34.4897 29.8191 33.7806 29.8191C33.0716 29.8191 32.4289 30.1071 31.9636 30.5725C31.4982 31.0378 31.2102 31.6805 31.2102 32.3896C31.2102 33.0986 31.4982 33.7413 31.9636 34.2066C32.4289 34.672 33.0716 34.96 33.7806 34.96C34.4897 34.96 35.1324 34.672 35.5977 34.2066C36.063 33.7413 36.3511 33.0986 36.3511 32.3896C36.3511 31.6805 36.0631 31.0395 35.5977 30.5759ZM14.5549 32.3895C14.5549 32.6929 14.4322 32.9691 14.2328 33.1685C14.0334 33.3679 13.7589 33.4907 13.4538 33.4907C13.164 33.4907 12.8998 33.3799 12.7021 33.1975L12.6748 33.1685C12.4754 32.9691 12.3526 32.6947 12.3526 32.3895C12.3526 32.0861 12.4754 31.8083 12.6731 31.6105C12.8725 31.4128 13.1486 31.2901 13.4521 31.2901C13.7572 31.2901 14.0316 31.4128 14.2311 31.6122C14.4305 31.8117 14.5532 32.0861 14.5532 32.3912L14.5549 32.3895ZM15.2708 30.5725C15.7362 31.0378 16.0243 31.6804 16.0243 32.3895C16.0243 33.0986 15.7362 33.7412 15.2708 34.2066C14.8055 34.6719 14.1629 34.96 13.4538 34.96C12.7686 34.96 12.1447 34.689 11.6828 34.2492L11.6367 34.2066C11.1714 33.7413 10.8833 33.0986 10.8833 32.3895C10.8833 31.6804 11.1714 31.0395 11.6367 30.5759L11.6401 30.5725C12.1055 30.1072 12.7464 29.8191 13.4538 29.8191C14.1611 29.8191 14.8055 30.1071 15.2708 30.5725Z" fill="black"/>
</svg>
